<?xml version="1.0" encoding="utf-8"?>
<!-- Generator: Adobe Illustrator 26.0.0, SVG Export Plug-In . SVG Version: 6.00 Build 0)  -->
<svg version="1.1" id="图层_1" xmlns="http://www.w3.org/2000/svg" xmlns:xlink="http://www.w3.org/1999/xlink" x="0px" y="0px"
	 viewBox="0 0 595.3 841.9" style="enable-background:new 0 0 595.3 841.9;" xml:space="preserve">
<style type="text/css">
	.st0{fill:#FFFFFF;stroke:#000000;stroke-miterlimit:10;}
	.st1{fill:none;stroke:#000000;stroke-miterlimit:10;}
	.st2{fill:none;}
</style>
<polygon class="st0" points="216,353.7 215.6,353.7 215.6,353.7 379.3,353.7 379.3,353.7 502.5,353.7 379.3,488.2 92.8,488.2 "/>
<ellipse class="st0" cx="297.6" cy="428.8" rx="48.5" ry="16.2"/>
<ellipse class="st0" cx="297.6" cy="532.2" rx="48.5" ry="16.2"/>
<ellipse class="st0" cx="297.6" cy="325.5" rx="48.5" ry="16.2"/>
<line class="st0" x1="249.1" y1="428.8" x2="249.1" y2="325.5"/>
<line class="st0" x1="346.2" y1="428.8" x2="346.2" y2="325.5"/>
<path class="st0" d="M346.2,532.2"/>
<line class="st0" x1="249.1" y1="488.2" x2="249.1" y2="532.2"/>
<line class="st1" x1="346.2" y1="488.2" x2="346.2" y2="532.2"/>
<g>
	<g>
		<line class="st1" x1="297.6" y1="572.9" x2="297.6" y2="510.1"/>
		<g>
			<path d="M297.6,511.9l-3.6,2.2l-0.1-0.1l2.3-5.9c0.5-2,0.9-4.1,1.4-6.1c0.5,2,0.9,4.1,1.4,6.1l2.3,5.9l-0.1,0.1L297.6,511.9z"/>
		</g>
	</g>
</g>
<g>
	<g>
		<line class="st1" x1="297.6" y1="344.8" x2="297.6" y2="282"/>
		<g>
			<path d="M297.6,283.8L294,286l-0.1-0.1l2.3-5.9c0.5-2,0.9-4.1,1.4-6.1c0.5,2,0.9,4.1,1.4,6.1l2.3,5.9l-0.1,0.1L297.6,283.8z"/>
		</g>
	</g>
</g>
<g>
	<path d="M325.1,296.6c-0.1,0.4-0.2,0.8-0.4,1.3h-4.3v-0.2c0.7-0.7,1.3-1.4,1.9-2c0.6-0.7,1.6-1.7,1.6-2.9c0-1.1-0.6-1.7-1.5-1.7
		c-0.9,0-1.4,0.7-1.7,1.1l-0.2-0.1l0.7-0.9c0.3-0.3,0.9-0.6,1.5-0.6c1,0,1.9,0.7,1.9,1.9c0,1.1-0.6,1.8-1.5,2.9l-1.9,2.1h2.5
		c0.6,0,0.8-0.1,1.1-0.8L325.1,296.6z"/>
	<path d="M326,297.7c0.7,0,0.9-0.2,0.9-1v-2.4c0-0.8-0.1-0.9-0.8-1v-0.2c0.5-0.1,1-0.2,1.3-0.5v1c0.2-0.1,0.5-0.4,0.9-0.6
		c0.3-0.2,0.6-0.3,1-0.3c1,0,1.6,0.6,1.6,1.6v2.4c0,0.9,0.1,1,0.8,1v0.2h-2.3v-0.2c0.8,0,1-0.2,1-1v-2c0-0.7-0.2-1.5-1.3-1.5
		c-0.6,0-1.2,0.4-1.6,0.7v2.7c0,0.8,0.1,1,1,1v0.2H326V297.7z"/>
</g>
<g>
	<path d="M307.1,297.6c2.3-0.1,2.5-0.5,2.5-2.4v-9.5c0-2.1-0.2-2.5-2.2-2.6v-0.3h10.6c0,0.9,0.1,2.3,0.2,3.7l-0.4,0.1
		c-0.5-2.5-1-3.2-3.9-3.2h-2.3c-0.7,0-0.7,0-0.7,0.7v5.7h2.8c1.9,0,2.4-0.2,2.7-1.9h0.4v4.5h-0.4c-0.4-1.9-0.9-2-2.7-2h-2.8v4.7
		c0,2.3,1,2.3,3,2.3c1.5,0,2.9,0,3.7-0.9c0.4-0.5,1-1.3,1.4-2.4h0.4c-0.2,0.9-0.7,3.1-0.9,3.9h-11.4V297.6z"/>
</g>
<g>
	<path d="M322.5,539.7c1.1-0.1,1.2-0.2,1.2-1.1v-4.7c0-0.5,0-0.6-0.6-0.7l-0.5-0.1V533c0.8-0.1,1.4-0.4,1.7-0.6v6.2
		c0,0.8,0.1,0.9,1.2,1.1v0.2h-3V539.7z"/>
	<path d="M327,539.7c0.7,0,0.9-0.2,0.9-1v-2.4c0-0.8-0.1-0.9-0.8-1v-0.2c0.5-0.1,1-0.2,1.3-0.5v1c0.2-0.1,0.5-0.4,0.9-0.6
		c0.3-0.2,0.6-0.3,1-0.3c1,0,1.6,0.6,1.6,1.6v2.4c0,0.9,0.1,1,0.8,1v0.2h-2.3v-0.2c0.8,0,1-0.2,1-1v-2c0-0.7-0.2-1.5-1.3-1.5
		c-0.6,0-1.2,0.4-1.6,0.7v2.7c0,0.8,0.1,1,1,1v0.2H327V539.7z"/>
</g>
<g>
	<path d="M307.9,539.5c2.3-0.1,2.5-0.5,2.5-2.4v-9.5c0-2.1-0.2-2.5-2.2-2.6v-0.3h10.6c0,0.9,0.1,2.3,0.2,3.7l-0.4,0.1
		c-0.5-2.5-1-3.2-3.9-3.2h-2.3c-0.7,0-0.7,0-0.7,0.7v5.7h2.8c1.9,0,2.4-0.2,2.7-1.9h0.4v4.5h-0.4c-0.4-1.9-0.9-2-2.7-2h-2.8v4.7
		c0,2.3,1,2.3,3,2.3c1.5,0,2.9,0,3.7-0.9c0.4-0.5,1-1.3,1.4-2.4h0.4c-0.2,0.9-0.7,3.1-0.9,3.9h-11.4V539.5z"/>
</g>
<circle cx="267.2" cy="423.9" r="0.2"/>
<circle cx="261" cy="428" r="0.2"/>
<circle cx="261" cy="428" r="0.2"/>
<circle cx="316.3" cy="433.3" r="0.2"/>
<circle cx="305.2" cy="438.8" r="0.2"/>
<circle cx="284.9" cy="418.1" r="0.2"/>
<circle cx="278.7" cy="422.2" r="0.2"/>
<circle cx="278.7" cy="422.2" r="0.2"/>
<circle cx="333.9" cy="427.5" r="0.2"/>
<circle cx="322.8" cy="433.1" r="0.2"/>
<circle cx="288.1" cy="432.3" r="0.2"/>
<circle cx="281.9" cy="436.4" r="0.2"/>
<circle cx="281.9" cy="436.4" r="0.2"/>
<circle cx="305.8" cy="426.6" r="0.2"/>
<circle cx="299.6" cy="430.7" r="0.2"/>
<circle cx="299.6" cy="430.7" r="0.2"/>
<circle cx="303.3" cy="431.2" r="0.2"/>
<circle cx="297.1" cy="435.4" r="0.2"/>
<circle cx="297.1" cy="435.4" r="0.2"/>
<circle cx="321" cy="425.5" r="0.2"/>
<circle cx="314.7" cy="429.6" r="0.2"/>
<circle cx="314.7" cy="429.6" r="0.2"/>
<circle cx="281.2" cy="429.7" r="0.2"/>
<circle cx="274.9" cy="433.8" r="0.2"/>
<circle cx="274.9" cy="433.8" r="0.2"/>
<circle cx="298.8" cy="423.9" r="0.2"/>
<circle cx="292.6" cy="428" r="0.2"/>
<circle cx="292.6" cy="428" r="0.2"/>
<circle cx="314.5" cy="434.6" r="0.2"/>
<circle cx="288" cy="418" r="0.2"/>
<circle cx="288" cy="418" r="0.2"/>
<circle cx="297.4" cy="428.1" r="0.2"/>
<circle cx="291.2" cy="432.2" r="0.2"/>
<circle cx="291.2" cy="432.2" r="0.2"/>
<circle cx="315.1" cy="422.3" r="0.2"/>
<circle cx="308.9" cy="426.5" r="0.2"/>
<circle cx="308.9" cy="426.5" r="0.2"/>
<circle cx="312.6" cy="427" r="0.2"/>
<circle cx="306.4" cy="431.2" r="0.2"/>
<circle cx="306.4" cy="431.2" r="0.2"/>
<circle cx="290.5" cy="425.4" r="0.2"/>
<circle cx="308.1" cy="419.7" r="0.2"/>
<circle cx="301.9" cy="423.8" r="0.2"/>
<circle cx="301.9" cy="423.8" r="0.2"/>
<circle cx="329.2" cy="432.3" r="0.2"/>
<circle cx="302.7" cy="415.7" r="0.2"/>
<circle cx="302.7" cy="415.7" r="0.2"/>
<circle cx="312.1" cy="425.8" r="0.2"/>
<circle cx="305.9" cy="429.9" r="0.2"/>
<circle cx="305.9" cy="429.9" r="0.2"/>
<circle cx="329.8" cy="420.1" r="0.2"/>
<circle cx="323.6" cy="424.2" r="0.2"/>
<circle cx="323.6" cy="424.2" r="0.2"/>
<circle cx="327.3" cy="424.8" r="0.2"/>
<circle cx="321.1" cy="428.9" r="0.2"/>
<circle cx="321.1" cy="428.9" r="0.2"/>
<circle cx="305.2" cy="423.2" r="0.2"/>
<circle cx="322.9" cy="417.4" r="0.2"/>
<circle cx="316.7" cy="421.5" r="0.2"/>
<circle cx="316.7" cy="421.5" r="0.2"/>
<circle cx="292.8" cy="436.7" r="0.2"/>
<circle cx="266.3" cy="420" r="0.2"/>
<circle cx="266.3" cy="420" r="0.2"/>
<circle cx="275.7" cy="430.2" r="0.2"/>
<circle cx="269.5" cy="434.3" r="0.2"/>
<circle cx="269.5" cy="434.3" r="0.2"/>
<circle cx="293.4" cy="424.4" r="0.2"/>
<circle cx="287.2" cy="428.5" r="0.2"/>
<circle cx="287.2" cy="428.5" r="0.2"/>
<circle cx="290.9" cy="429.1" r="0.2"/>
<circle cx="284.7" cy="433.2" r="0.2"/>
<circle cx="284.7" cy="433.2" r="0.2"/>
<circle cx="268.7" cy="427.5" r="0.2"/>
<circle cx="286.4" cy="421.7" r="0.2"/>
<circle cx="280.2" cy="425.8" r="0.2"/>
<circle cx="280.2" cy="425.8" r="0.2"/>
<g>
	<path d="M374.4,425c-2.3-0.2-2.7-0.3-4.7-0.2c2.1,0.6,3.4,2.8,3.4,4.9c0,3.6-2.2,5.8-5.1,5.8c-3.1,0-4.6-3-4.6-5.8
		c0-2.3,1.1-4.2,3.6-5.6c1.2-0.6,2.7-0.9,6.9-1c1.3,0,2.1-0.2,2.6-0.5c0.6-0.3,0.8-0.1,0.2,0.9C376.1,424.8,375.6,425.1,374.4,425z
		 M368.1,425c-1.8,0.2-2.7,2-2.7,4.7c0,2.7,0.8,5.1,2.7,5.1c2.3,0,3.2-2.7,3.2-5.1C371.3,426.9,370.1,424.7,368.1,425z"/>
</g>
<line class="st2" x1="322.6" y1="428" x2="348.6" y2="429.1"/>
<line class="st1" x1="326.1" y1="429.4" x2="361.9" y2="430.3"/>
<line class="st1" x1="297.7" y1="528.3" x2="296.8" y2="528.3"/>
</svg>
