<?xml version="1.0" encoding="utf-8"?>
<!-- Generator: Adobe Illustrator 26.0.0, SVG Export Plug-In . SVG Version: 6.00 Build 0)  -->
<svg version="1.1" id="图层_1" xmlns="http://www.w3.org/2000/svg" xmlns:xlink="http://www.w3.org/1999/xlink" x="0px" y="0px"
	 viewBox="0 0 595.3 841.9" style="enable-background:new 0 0 595.3 841.9;" xml:space="preserve">
<style type="text/css">
	.st0{fill:none;stroke:#000000;stroke-miterlimit:10;}
	.st1{fill:none;stroke:#000000;stroke-miterlimit:10;stroke-dasharray:12;}
	.st2{fill:none;stroke:#000000;stroke-miterlimit:10;stroke-dasharray:11.3129,11.3129;}
	.st3{fill:none;stroke:#000000;stroke-miterlimit:10;stroke-dasharray:11.6703,11.6703;}
	.st4{fill:none;stroke:#000000;stroke-miterlimit:10;stroke-dasharray:9.921,9.921;}
	.st5{fill:none;stroke:#000000;stroke-miterlimit:10;stroke-dasharray:12,12;}
</style>
<polygon class="st0" points="502.5,353.7 440.9,353.7 440.9,420.9 "/>
<line class="st1" x1="154.4" y1="486.2" x2="154.4" y2="419"/>
<polyline class="st0" points="154.4,420.9 92.8,488.2 154.4,488.2 "/>
<polyline class="st0" points="154.4,488.2 154.4,517.7 440.9,517.7 440.9,420.9 379.3,488.2 154.4,488.2 "/>
<polyline class="st0" points="440.9,353.7 440.9,324.2 154.4,324.2 154.4,420.9 "/>
<g>
	<g>
		<line class="st0" x1="154.4" y1="420.9" x2="158.4" y2="416.5"/>
		<line class="st2" x1="166.1" y1="408.2" x2="208.1" y2="362.3"/>
		<polyline class="st0" points="211.9,358.1 216,353.7 215.6,353.7 215.6,353.7 221.6,353.7 		"/>
		<line class="st3" x1="233.2" y1="353.7" x2="367.4" y2="353.7"/>
		<polyline class="st0" points="373.3,353.7 379.3,353.7 379.3,353.7 385.3,353.7 		"/>
		<line class="st4" x1="395.2" y1="353.7" x2="429.9" y2="353.7"/>
		<line class="st0" x1="434.9" y1="353.7" x2="440.9" y2="353.7"/>
	</g>
</g>
<line class="st0" x1="154.4" y1="420.9" x2="440.9" y2="420.9"/>
<line class="st0" x1="363.6" y1="402" x2="363.6" y2="420.9"/>
<line class="st0" x1="231.7" y1="440" x2="231.7" y2="420.2"/>
<polyline class="st1" points="337.3,448.3 363.6,448.3 363.6,420.9 "/>
<g>
	<g>
		<line class="st5" x1="273.5" y1="448.3" x2="337.3" y2="448.3"/>
		<g>
			<path d="M275.3,448.3l2.2-3.6l-0.1-0.1l-5.9,2.3c-2,0.5-4.1,0.9-6.1,1.4c2,0.5,4.1,0.9,6.1,1.4l5.9,2.3l0.1-0.1L275.3,448.3z"/>
		</g>
	</g>
</g>
<polyline class="st1" points="231.7,439.9 231.7,448.3 265.3,448.3 "/>
<polyline class="st0" points="265.3,393.6 231.7,393.6 231.7,420.9 "/>
<line class="st0" x1="283.3" y1="393.6" x2="265.3" y2="393.6"/>
<line class="st0" x1="343.2" y1="393.6" x2="283.3" y2="393.6"/>
<g>
	<g>
		<line class="st0" x1="348.3" y1="393.6" x2="343.2" y2="393.6"/>
		<g>
			<path d="M346.5,393.6l-2.2,3.6l0.1,0.1l5.9-2.3c2-0.5,4.1-0.9,6.1-1.4c-2-0.5-4.1-0.9-6.1-1.4l-5.9-2.3l-0.1,0.1L346.5,393.6z"/>
		</g>
	</g>
</g>
<polyline class="st0" points="363.6,402 363.6,393.6 356.5,393.6 "/>
<g>
	<g>
		<line class="st0" x1="297.6" y1="420.9" x2="297.6" y2="295.1"/>
		<g>
			<path d="M297.6,296.9l-3.6,2.2V299l2.3-5.9c0.5-2,0.9-4.1,1.4-6.1c0.5,2,0.9,4.1,1.4,6.1l2.3,5.9l-0.1,0.1L297.6,296.9z"/>
		</g>
	</g>
</g>
<g>
	<g>
		<line class="st0" x1="297.6" y1="420.9" x2="434.1" y2="328.7"/>
		<g>
			<path d="M432.6,329.7l-3.8-1.8l0.1-0.1l6.2-1.4c1.9-0.8,3.9-1.5,5.8-2.3c-1.4,1.5-2.9,3-4.3,4.6l-3.6,5.2h-0.1L432.6,329.7z"/>
		</g>
	</g>
</g>
<line class="st0" x1="268.5" y1="469.3" x2="297.6" y2="420.9"/>
<g>
	<g>
		<line class="st0" x1="239.5" y1="517.7" x2="264.4" y2="476.3"/>
		<g>
			<path d="M263.4,477.9h-4.2v-0.1l5-3.8c1.4-1.5,2.9-3,4.3-4.6c-0.7,2-1.3,4-2,6l-1,6.2l-0.1,0.1L263.4,477.9z"/>
		</g>
	</g>
</g>
<g>
	<path d="M266.4,510.2h-1.8V504h-7v6.2h-1.8v-13.9h1.8v6h7v-6h1.8V510.2z"/>
</g>
<g>
	<path d="M271.4,509.6v-5.7c-0.1,0.1-0.4,0.3-0.7,0.4c-0.3,0.2-0.6,0.3-0.9,0.3v-0.8c0.4-0.1,0.7-0.3,1.2-0.5s0.7-0.4,0.9-0.6h0.3
		v6.8h-0.8V509.6z"/>
</g>
<g>
	<path d="M397.8,344.1H396v-6.2h-7v6.2h-1.8v-13.9h1.8v6h7v-6h1.8V344.1z"/>
</g>
<g>
	<path d="M404.1,338.6c0-0.4-0.1-0.6-0.3-0.8c-0.2-0.2-0.5-0.3-0.9-0.3c-0.3,0-0.6,0.1-0.9,0.2s-0.6,0.3-0.8,0.6v-0.8
		c0.2-0.2,0.5-0.4,0.8-0.5s0.6-0.2,1-0.2c0.6,0,1.1,0.2,1.5,0.5s0.6,0.8,0.6,1.3s-0.1,0.9-0.3,1.3c-0.2,0.4-0.6,0.7-1.2,1.1
		s-1,0.7-1.1,0.8c-0.2,0.2-0.3,0.3-0.4,0.5s-0.1,0.3-0.1,0.6h3.4v0.7h-4.3v-0.3c0-0.4,0.1-0.7,0.2-1s0.3-0.5,0.5-0.8
		s0.6-0.6,1.2-0.9c0.5-0.4,0.9-0.7,1.1-1S404.1,338.9,404.1,338.6z"/>
</g>
<path d="M315.6,307.3h-8.2c0.1,1.9,1.3,2.9,3.5,2.9c1.4,0,2.6-0.3,3.7-1v2.7c-1.1,0.6-2.6,1-4.5,1c-2,0-3.5-0.6-4.6-1.7
	s-1.7-2.7-1.7-4.7s0.6-3.6,1.8-4.9s2.7-1.9,4.4-1.9c1.8,0,3.2,0.5,4.2,1.6s1.5,2.6,1.5,4.4L315.6,307.3L315.6,307.3z M312.2,305
	c0-1.9-0.8-2.8-2.3-2.8c-0.6,0-1.2,0.3-1.7,0.8s-0.8,1.2-0.9,2H312.2z"/>
<path d="M324.4,312.9h-1.3v-4.2c0-1.5-0.5-2.3-1.6-2.3c-0.6,0-1,0.2-1.4,0.6s-0.5,1-0.5,1.6v4.2h-1.3v-7.3h1.3v1.2l0,0
	c0.5-0.9,1.3-1.4,2.4-1.4c0.8,0,1.4,0.3,1.8,0.8s0.6,1.3,0.6,2.2V312.9z"/>
<g>
	<g>
		<line class="st0" x1="440.9" y1="420.9" x2="481.1" y2="420.9"/>
		<g>
			<path d="M479.3,420.9l-2.2-3.6l0.1-0.1l5.9,2.3c2,0.5,4.1,0.9,6.1,1.4c-2,0.5-4.1,0.9-6.1,1.4l-5.9,2.3l-0.1-0.1L479.3,420.9z"/>
		</g>
	</g>
</g>
<path d="M468.9,435.6h-8.2c0.1,1.9,1.3,2.9,3.5,2.9c1.4,0,2.6-0.3,3.7-1v2.7c-1.1,0.6-2.6,1-4.5,1c-2,0-3.5-0.6-4.6-1.7
	s-1.7-2.7-1.7-4.7s0.6-3.6,1.8-4.9s2.7-1.9,4.4-1.9c1.8,0,3.2,0.5,4.2,1.6s1.5,2.6,1.5,4.4L468.9,435.6L468.9,435.6z M465.5,433.4
	c0-1.9-0.8-2.8-2.3-2.8c-0.6,0-1.2,0.3-1.7,0.8s-0.8,1.2-0.9,2H465.5z"/>
<g>
	<path d="M474.5,441c-0.2,0.1-0.5,0.2-0.9,0.2c-1,0-1.5-0.6-1.5-1.7v-3.3h-1v-0.8h1V434l1-0.3v1.7h1.4v0.8h-1.4v3.1
		c0,0.4,0.1,0.6,0.2,0.8s0.3,0.2,0.6,0.2c0.2,0,0.4-0.1,0.6-0.2L474.5,441L474.5,441z"/>
</g>
<g>
	<g>
		<line class="st0" x1="297.7" y1="420.9" x2="394.7" y2="315.1"/>
		<g>
			<path d="M393.5,316.4l-4.1-0.8l0-0.1l5.7-2.8c1.7-1.2,3.4-2.4,5.1-3.6c-1.1,1.8-2.1,3.6-3.2,5.4l-2.2,5.9l-0.1,0L393.5,316.4z"/>
		</g>
	</g>
</g>
<path d="M381.7,312.7c0.3,1.2,0.6,2,0.9,2.5c0.3,0.5,0.7,0.8,1.1,0.8c0.3,0,0.6-0.1,0.9-0.2c0,0.4,0,1.3-0.1,2.7
	c-0.5,0.2-1.1,0.3-1.7,0.3c-1.6,0-2.7-0.9-3.1-2.8h-0.1c-1,2-2.5,2.9-4.5,2.9c-1.5,0-2.7-0.6-3.6-1.7s-1.3-2.6-1.3-4.4
	c0-1.9,0.5-3.6,1.5-4.8c1-1.3,2.4-1.9,4.2-1.9c2,0,3.3,0.9,4,2.6h0.1l0.7-2.3h3.6L381.7,312.7z M378.8,312.4
	c-0.5-2.4-1.3-3.5-2.6-3.5c-0.8,0-1.4,0.4-1.9,1.1c-0.5,0.7-0.7,1.6-0.7,2.7c0,1,0.2,1.9,0.6,2.5c0.4,0.6,0.9,1,1.6,1
	c1.2,0,2.1-1.1,2.8-3.2L378.8,312.4z"/>
<path d="M388.4,312c-0.2-0.1-0.3-0.1-0.5-0.1c-0.6,0-0.8,0.3-0.8,1v0.7h1.2v0.7h-1.2v4.3h-0.9v-4.3h-0.9v-0.7h0.9v-0.8
	c0-0.5,0.2-1,0.5-1.3c0.3-0.3,0.7-0.5,1.2-0.5c0.3,0,0.5,0,0.6,0.1V312z"/>
</svg>
