<?xml version="1.0" encoding="utf-8"?>
<!-- Generator: Adobe Illustrator 26.0.0, SVG Export Plug-In . SVG Version: 6.00 Build 0)  -->
<svg version="1.1" id="图层_1" xmlns="http://www.w3.org/2000/svg" xmlns:xlink="http://www.w3.org/1999/xlink" x="0px" y="0px"
	 viewBox="0 0 595.3 841.9" style="enable-background:new 0 0 595.3 841.9;" xml:space="preserve">
<style type="text/css">
	.st0{fill:#FFFFFF;stroke:#000000;stroke-miterlimit:10;}
	.st1{fill:none;stroke:#000000;stroke-miterlimit:10;}
</style>
<ellipse class="st0" cx="287" cy="428.5" rx="167" ry="60.5"/>
<g>
	<g>
		<line class="st1" x1="183" y1="428.5" x2="183" y2="205.2"/>
		<g>
			<path d="M183,206.9l-3.6,2.2l-0.1-0.1l2.3-5.9c0.5-2,0.9-4.1,1.4-6.1c0.5,2,0.9,4.1,1.4,6.1l2.3,5.9l-0.1,0.1L183,206.9z"/>
		</g>
	</g>
</g>
<g>
	<g>
		<line class="st1" x1="287" y1="406" x2="287" y2="144.2"/>
		<g>
			<path d="M287,145.9l-3.6,2.2l-0.1-0.1l2.3-5.9c0.5-2,0.9-4.1,1.4-6.1c0.5,2,0.9,4.1,1.4,6.1l2.3,5.9l-0.1,0.1L287,145.9z"/>
		</g>
	</g>
</g>
<g>
	<g>
		<line class="st1" x1="392" y1="432.5" x2="392" y2="209.2"/>
		<g>
			<path d="M392,210.9l-3.6,2.2l-0.1-0.1l2.3-5.9c0.5-2,0.9-4.1,1.4-6.1c0.5,2,0.9,4.1,1.4,6.1l2.3,5.9l-0.1,0.1L392,210.9z"/>
		</g>
	</g>
</g>
<g>
	<path d="M316.8,173.5v-24.3h8.6c2.6,0,4.7,0.5,6.1,1.5c1.4,1,2.1,2.4,2.1,4.2c0,1.3-0.4,2.5-1.3,3.5c-0.9,1-2,1.7-3.4,2.1v0.1
		c1.7,0.2,3.1,0.8,4.1,1.9c1,1,1.6,2.4,1.6,3.9c0,2.2-0.8,4-2.4,5.3s-3.7,2-6.4,2H316.8z M322,153.1v6h2.5c1.2,0,2.1-0.3,2.8-0.8
		c0.7-0.6,1-1.4,1-2.4c0-1.9-1.4-2.8-4.1-2.8H322z M322,163v6.7h3.1c1.3,0,2.3-0.3,3.1-0.9c0.7-0.6,1.1-1.4,1.1-2.5
		c0-1-0.4-1.8-1.1-2.4c-0.7-0.6-1.8-0.8-3.1-0.8H322z"/>
</g>
<g>
	<g>
		<line class="st1" x1="334.7" y1="465.2" x2="334.7" y2="241.9"/>
		<g>
			<path d="M334.7,243.7l-3.6,2.2l-0.1-0.1l2.3-5.9c0.5-2,0.9-4.1,1.4-6.1c0.5,2,0.9,4.1,1.4,6.1l2.3,5.9l-0.1,0.1L334.7,243.7z"/>
		</g>
	</g>
</g>
<g>
	<g>
		<line class="st1" x1="240.5" y1="465.2" x2="240.5" y2="241.9"/>
		<g>
			<path d="M240.5,243.7l-3.6,2.2l-0.1-0.1l2.3-5.9c0.5-2,0.9-4.1,1.4-6.1c0.5,2,0.9,4.1,1.4,6.1l2.3,5.9l-0.1,0.1L240.5,243.7z"/>
		</g>
	</g>
</g>
</svg>
