<?xml version="1.0" encoding="utf-8"?>
<!-- Generator: Adobe Illustrator 26.0.0, SVG Export Plug-In . SVG Version: 6.00 Build 0)  -->
<svg version="1.1" id="图层_1" xmlns="http://www.w3.org/2000/svg" xmlns:xlink="http://www.w3.org/1999/xlink" x="0px" y="0px"
	 viewBox="0 0 595.3 841.9" style="enable-background:new 0 0 595.3 841.9;" xml:space="preserve">
<style type="text/css">
	.st0{fill:#FFFFFF;stroke:#000000;stroke-miterlimit:10;}
	.st1{fill:#FFFFFF;}
	.st2{fill:none;stroke:#000000;stroke-miterlimit:10;}
</style>
<polyline class="st0" points="402.7,285.9 511.2,285.9 511.2,386.3 "/>
<g>
	<line class="st1" x1="279.5" y1="285.9" x2="402.7" y2="285.9"/>
	<g>
		<line class="st2" x1="279.5" y1="285.9" x2="394.5" y2="285.9"/>
		<g>
			<path d="M392.7,285.9l-2.2-3.6l0.1-0.1l5.9,2.3c2,0.5,4.1,0.9,6.1,1.4c-2,0.5-4.1,0.9-6.1,1.4l-5.9,2.3l-0.1-0.1L392.7,285.9z"/>
		</g>
	</g>
</g>
<polyline class="st0" points="279.5,509.9 168.2,509.9 168.2,285.9 279.5,285.9 "/>
<g>
	<line class="st1" x1="402.7" y1="509.9" x2="279.5" y2="509.9"/>
	<g>
		<line class="st2" x1="402.7" y1="509.9" x2="287.7" y2="509.9"/>
		<g>
			<path d="M289.5,509.9l2.2,3.6l-0.1,0.1l-5.9-2.3c-2-0.5-4.1-0.9-6.1-1.4c2-0.5,4.1-0.9,6.1-1.4l5.9-2.3l0.1,0.1L289.5,509.9z"/>
		</g>
	</g>
</g>
<polyline class="st0" points="511.2,403 511.2,509.9 402.7,509.9 "/>
<circle class="st0" cx="168.2" cy="397.9" r="25.8"/>
<line class="st0" x1="529.4" y1="403" x2="493" y2="403"/>
<line class="st0" x1="493" y1="386.1" x2="529.4" y2="386.1"/>
<g>
	<path class="st2" d="M152.2,391.9c5.2,0,5.2,12,10.4,12c5.2,0,5.2-12,10.4-12c5.2,0,5.2,12,10.4,12"/>
</g>
<g>
	<path d="M387.4,271.5c0,2.5-0.6,4.3-1.7,5.7c-1.1,1.3-2.8,2-4.9,2c-0.9,0-1.8-0.2-2.6-0.5v-3.7c0.7,0.5,1.5,0.8,2.4,0.8
		c1.9,0,2.9-1.4,2.9-4.3v-11.2h4V271.5z"/>
</g>
<g>
	<path d="M310.6,526.8c0,2.5-0.6,4.3-1.7,5.7c-1.1,1.3-2.8,2-4.9,2c-0.9,0-1.8-0.2-2.6-0.5v-3.7c0.7,0.5,1.5,0.8,2.4,0.8
		c1.9,0,2.9-1.4,2.9-4.3v-11.2h4V526.8z"/>
</g>
<g>
	<g>
		<line class="st2" x1="476.7" y1="369.7" x2="476.7" y2="429.3"/>
		<g>
			<path d="M476.7,427.5l3.6-2.2l0.1,0.1l-2.3,5.9c-0.5,2-0.9,4.1-1.4,6.1c-0.5-2-0.9-4.1-1.4-6.1l-2.3-5.9l0.1-0.1L476.7,427.5z"/>
		</g>
	</g>
</g>
<g>
	<path d="M456.9,404.9c0,2.5-0.6,4.3-1.7,5.7c-1.1,1.3-2.8,2-4.9,2c-0.9,0-1.8-0.2-2.6-0.5v-3.7c0.7,0.5,1.5,0.8,2.4,0.8
		c1.9,0,2.9-1.4,2.9-4.3v-11.2h4V404.9z"/>
</g>
<g>
	<path d="M459.3,411.9v-6.6h1.9c1,0,1.8,0.3,2.5,0.9c0.7,0.6,1,1.4,1,2.3c0,1-0.3,1.8-1,2.4c-0.7,0.6-1.5,0.9-2.6,0.9H459.3z
		 M460.1,406.1v5.1h1c0.8,0,1.5-0.2,2-0.7c0.5-0.5,0.7-1.1,0.7-1.9s-0.2-1.4-0.7-1.9c-0.5-0.4-1.1-0.6-1.9-0.6H460.1z"/>
</g>
<g>
	<path d="M548.6,402.1c-1.1,0.6-2.6,0.9-4.3,0.9c-2.2,0-4-0.7-5.3-2.1c-1.3-1.4-2-3.3-2-5.6c0-2.5,0.7-4.5,2.2-6
		c1.5-1.5,3.4-2.3,5.7-2.3c1.5,0,2.7,0.2,3.7,0.6v2.1c-1.1-0.6-2.3-0.9-3.7-0.9c-1.7,0-3.1,0.6-4.2,1.7c-1.1,1.2-1.6,2.7-1.6,4.7
		c0,1.9,0.5,3.3,1.5,4.4s2.3,1.6,4,1.6c1.5,0,2.9-0.3,4-1V402.1z"/>
</g>
</svg>
