<?xml version="1.0" encoding="utf-8"?>
<!-- Generator: Adobe Illustrator 26.0.0, SVG Export Plug-In . SVG Version: 6.00 Build 0)  -->
<svg version="1.1" id="图层_1" xmlns="http://www.w3.org/2000/svg" xmlns:xlink="http://www.w3.org/1999/xlink" x="0px" y="0px"
	 viewBox="0 0 477 435" style="enable-background:new 0 0 477 435;" xml:space="preserve">
<style type="text/css">
	.st0{fill:#CFD0D0;}
	.st1{fill:none;stroke:#000000;stroke-miterlimit:10;}
	.st2{fill:#FFFFFF;}
</style>
<g>
	<g>
		<path class="st0" d="M290.9,288.8c2.3-8.5,3.9-16,5.1-21.7c12.3-59.2-3.4-127.5-26-131c-25-3.8-39.4,74.3-82,77
			c-40,2.5-63.9-63.9-87-56c-16.3,5.6-17,43.2-18,97c-0.1,5.3-0.2,10.3-0.3,15.1"/>
		<g>
			<path class="st1" d="M290.9,288.8c2.3-8.5,3.9-16,5.1-21.7c12.3-59.2-3.4-127.5-26-131c-25-3.8-39.4,74.3-82,77
				c-40,2.5-63.9-63.9-87-56c-16.3,5.6-17,43.2-18,97c0,2.4-0.1,4.7-0.1,7"/>
			<g>
				<path d="M82.9,259.3l3.6-2.1l0.1,0.1l-2.4,5.8c-0.5,2-1,4.1-1.5,6.1c-0.4-2.1-0.8-4.1-1.2-6.2l-2.2-5.9l0.1-0.1L82.9,259.3z"/>
			</g>
		</g>
	</g>
	<g>
		<path class="st0" d="M82.7,269.2C82,312,82.9,334.9,95,351.1c26.1,34.8,85.2,44.2,129,25c42-18.4,58.9-58.4,66.9-87.3"/>
		<g>
			<path class="st1" d="M82.7,269.2C82,312,82.9,334.9,95,351.1c26.1,34.8,85.2,44.2,129,25c38.3-16.8,55.8-51.6,64.6-79.5"/>
			<g>
				<path d="M288,298.3l-4.1,1v-0.1l3.9-4.9c1-1.8,2.1-3.7,3.1-5.5c-0.2,2.1-0.3,4.2-0.5,6.3l0.5,6.3l-0.1,0.1L288,298.3z"/>
			</g>
		</g>
	</g>
</g>
<g>
	<path class="st2" d="M367,317.8c-13.5-3.5-20.5-9.4-30-5.7c-23.6,9.1-31.4,64-16,74c13.5,8.8,36.1-22.8,63-14
		c21.7,7.1,23.9,33.3,34,32c16.7-2.2,29.6-76.7,8-89c-8.7-5-15.3,4.7-39,5C378.9,320.2,372.4,319.2,367,317.8"/>
	<g>
		<path class="st1" d="M367,317.8c-13.5-3.5-20.5-9.4-30-5.7c-23.6,9.1-31.4,64-16,74c13.5,8.8,36.1-22.8,63-14
			c21.7,7.1,23.9,33.3,34,32c16.7-2.2,29.6-76.7,8-89c-8.7-5-15.3,4.7-39,5c-4.5,0.1-8.4-0.2-12-0.7"/>
		<g>
			<path d="M376.8,319.6l1.5,3.9l-0.1,0.1l-5.3-3.4c-1.9-0.8-3.9-1.6-5.8-2.5c2.1-0.1,4.2-0.1,6.3-0.2l6.2-1.2l0.1,0.1L376.8,319.6z
				"/>
		</g>
	</g>
</g>
<g>
	<path class="st2" d="M334.8,129.8c3.5,2.6,7.3,5.4,11.2,8.3c36.3,26.9,42.5,32.9,50,30c17.1-6.6,24.4-53.2,4-82
		c-23.1-32.6-71.8-28-95-21c-10.1,3.1-22.1,6.7-24,15C278.7,90,292.7,98.9,334.8,129.8"/>
	<g>
		<path class="st1" d="M334.8,129.8c3.5,2.6,7.3,5.4,11.2,8.3c36.3,26.9,42.5,32.9,50,30c17.1-6.6,24.4-53.2,4-82
			c-23.1-32.6-71.8-28-95-21c-10.1,3.1-22.1,6.7-24,15c-2.1,9.4,10.2,17.9,47.2,44.9"/>
		<g>
			<path d="M326.7,123.9l0.4-4.2h0.1l3.4,5.4c1.4,1.6,2.8,3.1,4.2,4.7c-1.9-0.8-3.8-1.7-5.8-2.5l-6.1-1.6l-0.1-0.1L326.7,123.9z"/>
		</g>
	</g>
</g>
<g>
	<path class="st2" d="M136.8,99.8c-9.8,5.5-21.1,9.1-32.8,9.3c-23.6,0.4-51.5-12.8-60-38c-0.6-1.7-8.1-25.1,4-40
		c24.4-30,114.2-7.2,120,24C170.6,69.1,157,88.5,136.8,99.8"/>
	<g>
		<path class="st1" d="M136.8,99.8c-9.8,5.5-21.1,9.1-32.8,9.3c-23.6,0.4-51.5-12.8-60-38c-0.6-1.7-8.1-25.1,4-40
			c24.4-30,114.2-7.2,120,24c2.3,12.4-8,28.9-24.3,40.4"/>
		<g>
			<path d="M145.2,94.4l3.8,1.8l-0.1,0.1l-6.2,1.2c-2,0.7-3.9,1.5-5.9,2.2c1.5-1.5,2.9-3,4.4-4.5l3.7-5.2h0.1L145.2,94.4z"/>
		</g>
	</g>
</g>
<g>
	<path d="M171.1,282.3c0.6,0.5,1.3,0.9,2.2,1.2s1.8,0.5,2.6,0.5c2.5,0,3.8-0.9,3.8-2.7c0-0.5-0.1-1-0.4-1.4s-0.6-0.8-1.1-1.1
		s-1.4-0.8-2.7-1.4c-1.8-0.9-3-1.7-3.6-2.5s-0.9-1.7-0.9-2.7c0-1.5,0.6-2.7,1.8-3.6s2.7-1.3,4.6-1.3c1.8,0,3.1,0.2,4,0.7v2.6
		c-1.1-0.8-2.5-1.1-4.1-1.1c-1.1,0-2,0.2-2.7,0.7s-1,1.1-1,1.9c0,0.7,0.2,1.3,0.7,1.8s1.5,1.1,3.2,1.9c1.8,0.9,3,1.7,3.7,2.6
		s1.1,1.8,1.1,2.9c0,1.6-0.6,2.8-1.7,3.7s-2.8,1.3-4.8,1.3c-0.7,0-1.6-0.1-2.5-0.3s-1.7-0.4-2.1-0.7v-3H171.1z"/>
</g>
<g>
	<path d="M69.8,251.3v18.2h-2.3v-18.2H69.8z"/>
</g>
<g>
	<path d="M305.3,276.9v18.2H303v-18.2H305.3z"/>
</g>
<path d="M400.2,343.6h-9.6v-18.2h2.3v16.1h7.2v2.1H400.2z"/>
<path d="M405.2,343.6v-7.8c-0.2,0.2-0.5,0.4-0.9,0.6s-0.8,0.4-1.2,0.5v-1.1c0.5-0.1,1-0.3,1.5-0.6s1-0.6,1.3-0.8h0.4v9.3h-1.1V343.6
	z"/>
<path d="M348.3,123.5h-9.6v-18.2h2.3v16.1h7.2v2.1H348.3z"/>
<path d="M129.8,92.6h-9.6V74.5h2.3v16.1h7.2v2H129.8z"/>
<g>
	<path d="M132.3,91.1c0.6,0.5,1.3,0.7,2.1,0.7c0.6,0,1.1-0.2,1.5-0.5s0.5-0.7,0.5-1.2c0-1.1-0.8-1.7-2.5-1.7h-0.8v-0.9h0.7
		c1.5,0,2.2-0.5,2.2-1.6c0-1-0.6-1.5-1.7-1.5c-0.6,0-1.2,0.2-1.8,0.6v-1.1c0.6-0.3,1.3-0.5,2.1-0.5s1.4,0.2,1.9,0.6s0.7,0.9,0.7,1.6
		c0,1.2-0.6,2-1.8,2.3l0,0c0.7,0.1,1.2,0.3,1.6,0.7s0.6,0.9,0.6,1.5c0,0.8-0.3,1.5-0.9,2s-1.4,0.8-2.3,0.8c-0.9,0-1.6-0.2-2.1-0.5
		V91.1z"/>
</g>
<g>
	<path d="M354.8,116.9c0-0.5-0.2-0.9-0.5-1.2s-0.7-0.4-1.3-0.4c-0.4,0-0.8,0.1-1.1,0.3s-0.7,0.5-1.1,0.8v-1.1c0.3-0.3,0.6-0.5,1-0.7
		s0.8-0.2,1.3-0.2c0.8,0,1.5,0.2,2,0.7s0.8,1,0.8,1.8c0,0.7-0.2,1.2-0.5,1.7s-0.8,1-1.6,1.5c-0.8,0.5-1.3,0.9-1.5,1.1
		s-0.4,0.4-0.5,0.7s-0.2,0.5-0.2,0.8h4.5v1h-5.7v-0.5c0-0.5,0.1-1,0.2-1.3s0.4-0.7,0.7-1.1s0.8-0.8,1.5-1.2c0.7-0.5,1.2-0.9,1.5-1.3
		S354.8,117.4,354.8,116.9z"/>
</g>
</svg>
