<?xml version="1.0" encoding="utf-8"?>
<!-- Generator: Adobe Illustrator 26.0.0, SVG Export Plug-In . SVG Version: 6.00 Build 0)  -->
<svg version="1.1" id="图层_1" xmlns="http://www.w3.org/2000/svg" xmlns:xlink="http://www.w3.org/1999/xlink" x="0px" y="0px"
	 viewBox="0 0 595.3 841.9" style="enable-background:new 0 0 595.3 841.9;" xml:space="preserve">
<style type="text/css">
	.st0{fill:#FFFFFF;stroke:#000000;stroke-miterlimit:10;}
	.st1{fill:none;stroke:#000000;stroke-miterlimit:10;}
	.st2{stroke:#000000;stroke-miterlimit:10;}
</style>
<circle class="st0" cx="208" cy="431" r="83"/>
<line class="st1" x1="414" y1="366" x2="208" y2="431"/>
<circle class="st2" cx="413.8" cy="366.2" r="1.3"/>
<circle class="st2" cx="253.6" cy="416.6" r="1.3"/>
<g>
	<path d="M255.5,425.4c0-1.5,0.4-2.6,1.2-3.5c0.8-0.9,1.9-1.3,3.2-1.3c1.3,0,2.3,0.4,3,1.3c0.8,0.8,1.2,2,1.2,3.3
		c0,1.5-0.4,2.6-1.2,3.5c-0.2,0.2-0.4,0.4-0.6,0.5l2.5,1.8H263l-1.7-1.3c-0.4,0.1-0.9,0.2-1.5,0.2c-1.3,0-2.3-0.4-3.1-1.3
		S255.5,426.8,255.5,425.4z M256.8,425.3c0,1.1,0.3,2,0.8,2.6s1.3,1,2.2,1c1,0,1.7-0.3,2.3-1s0.8-1.5,0.8-2.7s-0.3-2.1-0.8-2.7
		s-1.3-1-2.2-1c-0.9,0-1.7,0.3-2.2,1C257,423.3,256.8,424.2,256.8,425.3z"/>
	<path d="M267.1,420.6l-0.9,2.8h-0.8l0.7-2.8H267.1z"/>
</g>
<path d="M409.3,375.4c0-1.5,0.4-2.6,1.2-3.5c0.8-0.9,1.9-1.3,3.2-1.3c1.3,0,2.3,0.4,3,1.3c0.8,0.8,1.2,2,1.2,3.3
	c0,1.5-0.4,2.6-1.2,3.5c-0.2,0.2-0.4,0.4-0.6,0.5l2.5,1.8h-1.9l-1.7-1.3c-0.4,0.1-0.9,0.2-1.5,0.2c-1.3,0-2.3-0.4-3.1-1.3
	S409.3,376.7,409.3,375.4z M410.5,375.3c0,1.1,0.3,2,0.8,2.6s1.3,1,2.2,1c1,0,1.7-0.3,2.3-1s0.8-1.5,0.8-2.7s-0.3-2.1-0.8-2.7
	s-1.3-1-2.2-1c-0.9,0-1.7,0.3-2.2,1C410.8,373.3,410.5,374.2,410.5,375.3z"/>
<g>
	<path d="M321.2,400.1c0.6-0.4,1.4-0.6,2.2-0.6c1.6,0,2.3,0.8,2.3,2.5v4.2h-1.1v-1l0,0c-0.4,0.8-1.1,1.2-2,1.2
		c-0.6,0-1.1-0.2-1.5-0.5s-0.6-0.8-0.6-1.4c0-1.2,0.7-1.9,2.2-2.1l1.9-0.3c0-1.1-0.4-1.6-1.3-1.6c-0.8,0-1.5,0.3-2.1,0.8V400.1z
		 M323.1,403.1c-0.5,0.1-0.9,0.2-1.1,0.4s-0.3,0.5-0.3,0.8s0.1,0.6,0.3,0.8s0.5,0.3,0.9,0.3c0.5,0,0.9-0.2,1.2-0.5s0.5-0.8,0.5-1.3
		V403L323.1,403.1z"/>
</g>
<g>
	<path d="M230.5,437v0.9h-1.1v-9.6h1.1v4.2l0,0c0.5-0.8,1.2-1.3,2.2-1.3c0.8,0,1.5,0.3,1.9,0.9s0.7,1.4,0.7,2.3c0,1.1-0.3,2-0.8,2.6
		s-1.3,1-2.1,1C231.6,438.1,231,437.8,230.5,437L230.5,437z M230.5,435.3c0,0.5,0.2,1,0.5,1.3s0.8,0.5,1.3,0.5
		c0.6,0,1.1-0.2,1.4-0.7s0.5-1.1,0.5-1.9c0-0.7-0.2-1.2-0.5-1.6s-0.8-0.6-1.3-0.6c-0.6,0-1,0.2-1.4,0.6s-0.5,0.9-0.5,1.5V435.3z"/>
</g>
<circle class="st2" cx="208" cy="431" r="1.3"/>
<line class="st1" x1="208" y1="514" x2="208" y2="528.3"/>
<line class="st1" x1="202.8" y1="528.3" x2="213.2" y2="528.3"/>
<line class="st1" x1="204.3" y1="531.1" x2="211.4" y2="531.1"/>
</svg>
