<?xml version="1.0" encoding="utf-8"?>
<!-- Generator: Adobe Illustrator 26.0.0, SVG Export Plug-In . SVG Version: 6.00 Build 0)  -->
<svg version="1.1" id="图层_1" xmlns="http://www.w3.org/2000/svg" xmlns:xlink="http://www.w3.org/1999/xlink" x="0px" y="0px"
	 viewBox="0 0 413.2 211.3" style="enable-background:new 0 0 413.2 211.3;" xml:space="preserve">
<style type="text/css">
	.st0{fill:none;stroke:#000000;stroke-miterlimit:10;}
</style>
<g>
	<g>
		<polyline class="st0" points="334.2,163.7 66.3,163.7 66.3,41.5 		"/>
		<g>
			<path d="M332.4,163.7l-2.2,3.6l0.1,0.1l5.9-2.3c2-0.5,4.1-0.9,6.1-1.4c-2-0.5-4.1-0.9-6.1-1.4l-5.9-2.3l-0.1,0.1L332.4,163.7z"/>
		</g>
	</g>
</g>
<g>
	<g>
		<polyline class="st0" points="334.2,175.2 54.3,175.2 54.3,41.5 		"/>
		<g>
			<path d="M332.4,175.2l-2.2,3.6l0.1,0.1l5.9-2.3c2-0.5,4.1-0.9,6.1-1.4c-2-0.5-4.1-0.9-6.1-1.4l-5.9-2.3l-0.1,0.1L332.4,175.2z"/>
		</g>
	</g>
</g>
<path class="st0" d="M342.3,174.3"/>
<rect x="137" y="151.9" class="st0" width="131.5" height="11.8"/>
<path d="M57.3,38.7H49v-0.2l4.2-5.7L49,27.1v-0.2h8.1l0.2,2.1H57c-0.1-0.6-0.2-1-0.5-1.2s-0.6-0.4-1.1-0.4h-4.7l3.5,4.8l-4,5.3h5.2
	c0.3,0,0.6-0.1,1-0.2c0.2-0.1,0.4-0.2,0.6-0.4c0.2-0.2,0.3-0.5,0.4-1l0.3,0.1L57.3,38.7z"/>
<path d="M70.1,38.7h-8.3v-0.2l4.2-5.7l-4.2-5.6v-0.2h8.1l0.2,2.1h-0.3c-0.1-0.6-0.2-1-0.5-1.2s-0.6-0.4-1.1-0.4h-4.7l3.5,4.8l-4,5.3
	h5.2c0.3,0,0.6-0.1,1-0.2c0.2-0.1,0.4-0.2,0.6-0.4c0.2-0.2,0.3-0.5,0.4-1l0.3,0.1L70.1,38.7z"/>
<path d="M71.3,29.5c0.3-0.1,0.6-0.3,0.8-0.5c0.2-0.2,0.2-0.3,0.2-0.5c0-0.1,0-0.2,0-0.2c0,0-0.1-0.1-0.2-0.2
	c-0.1-0.1-0.2-0.2-0.2-0.2c0-0.1,0-0.1,0-0.2c0-0.2,0.1-0.3,0.2-0.5c0.1-0.1,0.3-0.2,0.4-0.2c0.2,0,0.3,0.1,0.5,0.2
	c0.1,0.1,0.2,0.3,0.2,0.5c0,0.4-0.1,0.8-0.4,1.1s-0.7,0.7-1.3,0.9L71.3,29.5z"/>
<path d="M100.5,81.7l2.5-0.5c0.2,0.4,0.3,0.9,0.4,1.3c0.2,0.7,0.3,1.4,0.4,2.3c0,0.5,0.1,1.4,0.2,2.9c0.7-0.8,1.2-1.3,1.3-1.5
	c0.8-1,1.2-1.6,1.3-1.8c0.2-0.3,0.3-0.6,0.4-0.8c0.1-0.2,0.1-0.3,0.1-0.5c0-0.2-0.1-0.3-0.4-0.5c-0.3-0.2-0.4-0.4-0.4-0.7
	c0-0.2,0.1-0.3,0.2-0.5c0.1-0.1,0.3-0.2,0.5-0.2c0.2,0,0.5,0.1,0.6,0.3s0.3,0.4,0.3,0.7s0,0.6-0.1,0.8c-0.2,0.4-0.4,1-0.8,1.6
	s-1.1,1.5-2,2.5c-0.1,0.1-0.8,0.8-1.9,2h-0.3c-0.1-3.7-0.4-5.9-0.9-6.8c-0.1-0.3-0.4-0.4-0.7-0.4c-0.1,0-0.3,0-0.6,0.1L100.5,81.7z"
	/>
<path d="M350,171c0.3,0.3,0.5,0.6,0.6,0.9c0.1,0.2,0.3,0.8,0.5,1.7l0.8-1.2c0.2-0.3,0.4-0.6,0.7-0.8c0.3-0.3,0.5-0.4,0.8-0.5
	c0.1-0.1,0.3-0.1,0.5-0.1c0.2,0,0.4,0.1,0.6,0.2c0.1,0.1,0.2,0.3,0.2,0.5c0,0.2,0,0.4-0.1,0.5c-0.2,0.1-0.3,0.2-0.6,0.2
	c-0.1,0-0.3,0-0.4-0.1c-0.3-0.1-0.5-0.1-0.5-0.1c-0.1,0-0.3,0.1-0.5,0.3c-0.4,0.3-0.8,0.9-1.3,1.8l0.7,3.1c0.1,0.5,0.2,0.8,0.3,0.9
	c0.1,0.1,0.2,0.1,0.2,0.1c0.1,0,0.3-0.1,0.4-0.2c0.3-0.3,0.6-0.6,0.8-1.1l0.3,0.2c-0.4,0.7-0.8,1.3-1.4,1.8
	c-0.3,0.3-0.6,0.4-0.8,0.4c-0.3,0-0.6-0.2-0.8-0.6c-0.1-0.2-0.4-1.2-0.8-3c-0.9,1.6-1.6,2.7-2.2,3.1c-0.4,0.3-0.7,0.4-1,0.4
	c-0.2,0-0.4-0.1-0.6-0.3c-0.1-0.1-0.2-0.3-0.2-0.5c0-0.2,0.1-0.4,0.2-0.5c0.1-0.1,0.3-0.2,0.5-0.2s0.4,0.1,0.6,0.3
	c0.2,0.1,0.3,0.2,0.3,0.2c0.1,0,0.2,0,0.3-0.1c0.3-0.2,0.6-0.7,1.1-1.5c0.5-0.8,0.8-1.3,0.9-1.6c-0.4-1.5-0.6-2.2-0.6-2.3
	c-0.1-0.4-0.3-0.7-0.5-0.8c-0.2-0.2-0.5-0.2-0.9-0.2c-0.1,0-0.3,0-0.5,0v-0.3L350,171z"/>
<path d="M350,155.1c0.3,0.3,0.5,0.6,0.6,0.9c0.1,0.2,0.3,0.8,0.5,1.6l0.8-1.1c0.2-0.3,0.4-0.5,0.7-0.8c0.3-0.3,0.5-0.4,0.8-0.5
	c0.1-0.1,0.3-0.1,0.5-0.1c0.2,0,0.4,0.1,0.6,0.2c0.1,0.1,0.2,0.3,0.2,0.5c0,0.2,0,0.4-0.1,0.5c-0.2,0.1-0.3,0.2-0.6,0.2
	c-0.1,0-0.3,0-0.4-0.1c-0.3-0.1-0.5-0.1-0.5-0.1c-0.1,0-0.3,0.1-0.5,0.2c-0.4,0.3-0.8,0.9-1.3,1.7l0.7,3c0.1,0.5,0.2,0.7,0.3,0.8
	s0.2,0.1,0.2,0.1c0.1,0,0.3-0.1,0.4-0.2c0.3-0.3,0.6-0.6,0.8-1l0.3,0.2c-0.4,0.7-0.8,1.2-1.4,1.7c-0.3,0.3-0.6,0.4-0.8,0.4
	c-0.3,0-0.6-0.2-0.8-0.5c-0.1-0.2-0.4-1.2-0.8-2.9c-0.9,1.6-1.6,2.6-2.2,3c-0.4,0.3-0.7,0.4-1,0.4c-0.2,0-0.4-0.1-0.6-0.3
	c-0.1-0.1-0.2-0.3-0.2-0.5c0-0.2,0.1-0.3,0.2-0.5c0.1-0.1,0.3-0.2,0.5-0.2s0.4,0.1,0.6,0.3c0.2,0.1,0.3,0.2,0.3,0.2
	c0.1,0,0.2,0,0.3-0.1c0.3-0.2,0.6-0.7,1.1-1.4c0.5-0.7,0.8-1.3,0.9-1.6c-0.4-1.4-0.6-2.1-0.6-2.2c-0.1-0.4-0.3-0.6-0.5-0.8
	c-0.2-0.2-0.5-0.2-0.9-0.2c-0.1,0-0.3,0-0.5,0v-0.3L350,155.1z"/>
<path d="M358.3,154.5c0.4-0.2,0.8-0.4,1.1-0.7c0.2-0.2,0.3-0.5,0.3-0.7c0-0.1,0-0.2-0.1-0.3c0,0-0.1-0.1-0.2-0.3
	c-0.1-0.1-0.2-0.2-0.2-0.3c0-0.1-0.1-0.2-0.1-0.3c0-0.2,0.1-0.5,0.3-0.6c0.2-0.2,0.4-0.3,0.6-0.3c0.2,0,0.4,0.1,0.6,0.3
	c0.2,0.2,0.3,0.4,0.3,0.7c0,0.5-0.2,1-0.6,1.6s-1,0.9-1.8,1.2L358.3,154.5z"/>
<path d="M133.2,178.1h4.6c1.2,0,2.1,0.3,2.7,0.8c0.6,0.5,0.9,1.2,0.9,2c0,0.6-0.2,1.2-0.6,1.8c-0.4,0.6-0.9,1.1-1.7,1.4
	s-1.6,0.5-2.4,0.5c-0.5,0-1.2-0.1-2.1-0.3l-0.9,3.3c-0.2,0.8-0.3,1.3-0.3,1.6c0,0.2,0.1,0.4,0.2,0.5c0.2,0.1,0.5,0.2,1.1,0.2
	l-0.1,0.3H130l0.1-0.3c0.6,0,1-0.1,1.3-0.3s0.5-0.8,0.8-1.8l1.9-6.9c0.2-0.8,0.3-1.4,0.3-1.7c0-0.2-0.1-0.4-0.2-0.5
	c-0.2-0.1-0.5-0.2-1.1-0.3L133.2,178.1z M134.8,183.8c0.7,0.2,1.2,0.3,1.6,0.3c0.6,0,1.2-0.1,1.7-0.4c0.5-0.3,0.9-0.7,1.2-1.2
	c0.3-0.5,0.4-1.1,0.4-1.7c0-0.6-0.2-1.1-0.5-1.4s-0.9-0.5-1.6-0.5c-0.4,0-0.9,0.1-1.4,0.2L134.8,183.8z"/>
<path d="M143.7,184.1l-1.6,5.9c-0.1,0.3-0.1,0.6-0.1,0.7c0,0.1,0,0.2,0.1,0.3c0.1,0.1,0.3,0.1,0.6,0.1l-0.1,0.2h-2.6l0.1-0.2
	c0.3,0,0.5,0,0.5-0.1c0.1-0.1,0.2-0.1,0.3-0.3c0.1-0.2,0.2-0.4,0.3-0.9l1.2-4.2c0.1-0.3,0.1-0.4,0.1-0.4c0-0.1,0-0.1,0-0.2
	c0-0.1,0-0.2-0.1-0.3c-0.1-0.1-0.2-0.1-0.3-0.1c-0.1,0-0.2,0-0.4,0.1l-0.1-0.2l1.7-0.5H143.7z"/>
<path d="M265.5,177.6h4.6c1.2,0,2.1,0.3,2.7,0.8c0.6,0.5,0.9,1.2,0.9,2c0,0.6-0.2,1.2-0.6,1.8c-0.4,0.6-0.9,1.1-1.7,1.4
	c-0.8,0.4-1.6,0.5-2.4,0.5c-0.5,0-1.2-0.1-2.1-0.3l-0.9,3.3c-0.2,0.8-0.3,1.3-0.3,1.6c0,0.2,0.1,0.4,0.2,0.5
	c0.2,0.1,0.5,0.2,1.1,0.2l-0.1,0.3h-4.7l0.1-0.3c0.6,0,1-0.1,1.3-0.3c0.2-0.2,0.5-0.8,0.8-1.8l1.9-6.9c0.2-0.8,0.3-1.4,0.3-1.7
	c0-0.2-0.1-0.4-0.2-0.5c-0.2-0.1-0.5-0.2-1.1-0.3L265.5,177.6z M267.1,183.2c0.7,0.2,1.2,0.3,1.6,0.3c0.6,0,1.2-0.1,1.7-0.4
	c0.5-0.3,0.9-0.7,1.2-1.2c0.3-0.5,0.4-1.1,0.4-1.7c0-0.6-0.2-1.1-0.5-1.4s-0.9-0.5-1.6-0.5c-0.4,0-0.9,0.1-1.4,0.2L267.1,183.2z"/>
<path d="M274.8,192.3h-3.4v-0.2c1.7-1.6,2.9-2.8,3.4-3.7c0.3-0.4,0.4-0.9,0.4-1.3c0-0.4-0.1-0.7-0.3-0.9c-0.2-0.2-0.5-0.3-0.8-0.3
	c-0.5,0-0.9,0.2-1.2,0.7l-0.2-0.1c0.2-0.5,0.4-0.8,0.8-1.1c0.3-0.3,0.7-0.4,1.1-0.4c0.4,0,0.8,0.2,1.1,0.5c0.3,0.3,0.4,0.7,0.4,1.1
	c0,0.3-0.1,0.6-0.2,0.9c-0.2,0.4-0.5,0.9-0.9,1.4c-0.7,0.8-1.5,1.7-2.6,2.7h1.7c0.3,0,0.5-0.1,0.7-0.2c0.2-0.1,0.3-0.3,0.4-0.5h0.2
	L274.8,192.3z"/>
<g>
	<g>
		<line class="st0" x1="83.3" y1="75.4" x2="121.7" y2="75.4"/>
		<g>
			<path d="M121.3,75.4c-1-1-1.5-3.1-1.6-4.5c1.4,1.9,3.3,3.6,5.5,4.5c-2.3,0.9-4,2.7-5.5,4.5C119.8,78.5,120.2,76.6,121.3,75.4z"/>
		</g>
	</g>
</g>
<rect x="137" y="170.3" class="st0" width="0" height="4.9"/>
<rect x="268.4" y="170" class="st0" width="0" height="4.9"/>
</svg>
