<?xml version="1.0" encoding="utf-8"?>
<!-- Generator: Adobe Illustrator 26.0.0, SVG Export Plug-In . SVG Version: 6.00 Build 0)  -->
<svg version="1.1" id="图层_1" xmlns="http://www.w3.org/2000/svg" xmlns:xlink="http://www.w3.org/1999/xlink" x="0px" y="0px"
	 viewBox="0 0 595.3 841.9" style="enable-background:new 0 0 595.3 841.9;" xml:space="preserve">
<style type="text/css">
	.st0{fill:none;stroke:#000000;stroke-miterlimit:10;}
	.st1{stroke:#000000;stroke-miterlimit:10;}
</style>
<g>
	<g>
		<polyline class="st0" points="478.8,492 113,492 113,288.2 		"/>
		<g>
			<path d="M477.1,492l-2.2,3.6l0.1,0.1l5.9-2.3c2-0.5,4.1-0.9,6.1-1.4c-2-0.5-4.1-0.9-6.1-1.4l-5.9-2.3l-0.1,0.1L477.1,492z"/>
		</g>
		<g>
			<path d="M113,289.9l-3.6,2.2l-0.1-0.1l2.3-5.9c0.5-2,0.9-4.1,1.4-6.1c0.5,2,0.9,4.1,1.4,6.1l2.3,5.9l-0.1,0.1L113,289.9z"/>
		</g>
	</g>
</g>
<g>
	<g>
		<polyline class="st0" points="478.8,492 241.8,492 241.8,288.2 		"/>
		<g>
			<path d="M477.1,492l-2.2,3.6l0.1,0.1l5.9-2.3c2-0.5,4.1-0.9,6.1-1.4c-2-0.5-4.1-0.9-6.1-1.4l-5.9-2.3l-0.1,0.1L477.1,492z"/>
		</g>
		<g>
			<path d="M241.8,289.9l-3.6,2.2l-0.1-0.1l2.3-5.9c0.5-2,0.9-4.1,1.4-6.1c0.5,2,0.9,4.1,1.4,6.1l2.3,5.9l-0.1,0.1L241.8,289.9z"/>
		</g>
	</g>
</g>
<circle class="st1" cx="241.8" cy="492" r="1.1"/>
<circle class="st1" cx="113" cy="492.1" r="1.1"/>
<path d="M461.9,502.2c0.4,0.4,0.7,0.8,0.9,1.2c0.1,0.3,0.4,1,0.7,2.2l1-1.5c0.3-0.4,0.6-0.7,1-1.1s0.7-0.6,1-0.7
	c0.2-0.1,0.4-0.1,0.6-0.1c0.3,0,0.6,0.1,0.8,0.3s0.3,0.4,0.3,0.7c0,0.3-0.1,0.5-0.2,0.6c-0.2,0.2-0.5,0.3-0.8,0.3
	c-0.2,0-0.3,0-0.5-0.1c-0.4-0.1-0.6-0.2-0.7-0.2c-0.2,0-0.4,0.1-0.7,0.3c-0.5,0.4-1.1,1.2-1.7,2.4l1,4c0.1,0.6,0.3,1,0.4,1.1
	s0.2,0.2,0.3,0.2c0.2,0,0.4-0.1,0.6-0.3c0.4-0.4,0.8-0.8,1.1-1.4l0.4,0.2c-0.5,0.9-1.1,1.7-1.9,2.3c-0.4,0.3-0.8,0.5-1.1,0.5
	c-0.4,0-0.8-0.2-1-0.7c-0.2-0.3-0.5-1.6-1-3.9c-1.2,2.1-2.2,3.5-2.9,4.1c-0.5,0.4-0.9,0.6-1.4,0.6c-0.3,0-0.6-0.1-0.9-0.3
	c-0.2-0.2-0.3-0.4-0.3-0.7s0.1-0.5,0.3-0.6s0.4-0.3,0.6-0.3s0.5,0.1,0.8,0.4c0.2,0.2,0.4,0.3,0.5,0.3s0.2-0.1,0.4-0.2
	c0.4-0.3,0.9-0.9,1.5-1.9s1-1.7,1.2-2.1c-0.5-1.9-0.7-2.9-0.8-3c-0.2-0.5-0.4-0.9-0.7-1.1s-0.7-0.3-1.3-0.3c-0.2,0-0.4,0-0.6,0V503
	L461.9,502.2z"/>
<path d="M488.8,502.2c0.4,0.4,0.7,0.8,0.9,1.2c0.1,0.3,0.4,1,0.7,2.2l1-1.5c0.3-0.4,0.6-0.7,1-1.1s0.7-0.6,1-0.7
	c0.2-0.1,0.4-0.1,0.6-0.1c0.3,0,0.6,0.1,0.8,0.3s0.3,0.4,0.3,0.7c0,0.3-0.1,0.5-0.2,0.6c-0.2,0.2-0.5,0.3-0.8,0.3
	c-0.2,0-0.3,0-0.5-0.1c-0.4-0.1-0.6-0.2-0.7-0.2c-0.2,0-0.4,0.1-0.7,0.3c-0.5,0.4-1.1,1.2-1.7,2.4l1,4c0.1,0.6,0.3,1,0.4,1.1
	s0.2,0.2,0.3,0.2c0.2,0,0.4-0.1,0.6-0.3c0.4-0.4,0.8-0.8,1.1-1.4l0.4,0.2c-0.5,0.9-1.1,1.7-1.9,2.3c-0.4,0.3-0.8,0.5-1.1,0.5
	c-0.4,0-0.8-0.2-1-0.7c-0.2-0.3-0.5-1.6-1-3.9c-1.2,2.1-2.2,3.5-2.9,4.1c-0.5,0.4-0.9,0.6-1.4,0.6c-0.3,0-0.6-0.1-0.9-0.3
	c-0.2-0.2-0.3-0.4-0.3-0.7s0.1-0.5,0.3-0.6s0.4-0.3,0.6-0.3s0.5,0.1,0.8,0.4c0.2,0.2,0.4,0.3,0.5,0.3s0.2-0.1,0.4-0.2
	c0.4-0.3,0.9-0.9,1.5-1.9s1-1.7,1.2-2.1c-0.5-1.9-0.7-2.9-0.8-3c-0.2-0.5-0.4-0.9-0.7-1.1s-0.7-0.3-1.3-0.3c-0.2,0-0.4,0-0.6,0V503
	L488.8,502.2z"/>
<path d="M500,501.3c0.6-0.3,1.1-0.6,1.4-1c0.3-0.3,0.4-0.6,0.4-0.9c0-0.1,0-0.3-0.1-0.4c0-0.1-0.1-0.2-0.3-0.4s-0.3-0.3-0.3-0.4
	c-0.1-0.1-0.1-0.3-0.1-0.5c0-0.3,0.1-0.6,0.3-0.9s0.5-0.4,0.8-0.4s0.6,0.1,0.8,0.4s0.4,0.6,0.4,1c0,0.7-0.3,1.4-0.8,2.1
	s-1.3,1.3-2.4,1.7L500,501.3z"/>
<path d="M226.1,291.7h7.4v0.3l-8.1,8.4h3.4c0.8,0,1.3,0,1.5-0.1s0.4-0.2,0.6-0.4s0.4-0.6,0.6-1.1h0.4l-1,3.2h-7.6v-0.3l8.1-8.4H228
	c-0.7,0-1.1,0-1.3,0.1c-0.2,0-0.4,0.2-0.7,0.4s-0.4,0.5-0.7,1h-0.4L226.1,291.7z"/>
<path d="M240.3,496.6c1.1,0,2,0.2,2.8,0.7s1.4,1.1,1.9,2s0.7,1.8,0.7,2.8c0,1.7-0.5,3.5-1.5,5.4s-2.3,3.3-3.9,4.3s-3.2,1.5-4.9,1.5
	c-1.2,0-2.3-0.3-3.1-0.8s-1.4-1.3-1.8-2.2s-0.6-1.8-0.6-2.6c0-1.5,0.4-3,1.1-4.4s1.6-2.7,2.6-3.6s2.1-1.7,3.2-2.2
	S239.1,496.6,240.3,496.6z M239.9,497.3c-0.8,0-1.5,0.2-2.3,0.6s-1.5,1-2.2,1.9s-1.4,2-2,3.5c-0.7,1.8-1.1,3.4-1.1,5
	c0,1.1,0.3,2.1,0.9,2.9s1.4,1.3,2.6,1.3c0.7,0,1.4-0.2,2.1-0.5s1.4-1,2.1-1.8c0.9-1.1,1.7-2.4,2.3-4.1s0.9-3.2,0.9-4.6
	c0-1.1-0.3-2-0.9-2.8S241.1,497.3,239.9,497.3z"/>
<path d="M100.7,291.7h7.4v0.3l-8.1,8.4h3.4c0.8,0,1.3,0,1.5-0.1s0.4-0.2,0.6-0.4s0.4-0.6,0.6-1.1h0.4l-1,3.2h-7.6v-0.3l8.1-8.4h-3.4
	c-0.7,0-1.1,0-1.3,0.1c-0.2,0-0.4,0.2-0.7,0.4s-0.4,0.5-0.7,1h-0.4L100.7,291.7z"/>
<path d="M233.6,293.9c0.6-0.3,1.1-0.6,1.4-1c0.3-0.3,0.4-0.6,0.4-0.9c0-0.1,0-0.3-0.1-0.4c0-0.1-0.1-0.2-0.3-0.4s-0.3-0.3-0.3-0.4
	c-0.1-0.1-0.1-0.3-0.1-0.5c0-0.3,0.1-0.6,0.3-0.9s0.5-0.4,0.8-0.4s0.6,0.1,0.8,0.4s0.4,0.6,0.4,1c0,0.7-0.3,1.4-0.8,2.1
	s-1.3,1.3-2.4,1.7L233.6,293.9z"/>
<path d="M247.8,499.8c0.6-0.3,1.1-0.6,1.4-1c0.3-0.3,0.4-0.6,0.4-0.9c0-0.1,0-0.3-0.1-0.4c0-0.1-0.1-0.2-0.3-0.4s-0.3-0.3-0.3-0.4
	c-0.1-0.1-0.1-0.3-0.1-0.5c0-0.3,0.1-0.6,0.3-0.9s0.5-0.4,0.8-0.4s0.6,0.1,0.8,0.4s0.4,0.6,0.4,1c0,0.7-0.3,1.4-0.8,2.1
	s-1.3,1.3-2.4,1.7L247.8,499.8z"/>
<path d="M108.8,496.6c1,0,1.9,0.2,2.7,0.7c0.8,0.5,1.4,1.1,1.9,2s0.7,1.8,0.7,2.8c0,1.7-0.5,3.5-1.4,5.4c-1,1.9-2.2,3.3-3.8,4.3
	s-3.2,1.5-4.8,1.5c-1.2,0-2.2-0.3-3-0.8s-1.4-1.3-1.8-2.2c-0.4-0.9-0.6-1.8-0.6-2.6c0-1.5,0.3-3,1-4.4s1.5-2.7,2.5-3.6
	s2-1.7,3.1-2.2S107.6,496.6,108.8,496.6z M108.4,497.3c-0.8,0-1.5,0.2-2.2,0.6s-1.4,1-2.2,1.9s-1.4,2-1.9,3.5c-0.7,1.8-1,3.4-1,5
	c0,1.1,0.3,2.1,0.8,2.9c0.6,0.9,1.4,1.3,2.6,1.3c0.7,0,1.4-0.2,2-0.5c0.7-0.4,1.4-1,2.1-1.8c0.9-1.1,1.7-2.4,2.3-4.1
	s0.9-3.2,0.9-4.6c0-1.1-0.3-2-0.8-2.8S109.5,497.3,108.4,497.3z"/>
<g>
	<g>
		<line class="st0" x1="254.5" y1="394.3" x2="311.9" y2="394.3"/>
		<g>
			<polygon points="309.1,398.1 310.7,394.3 309.1,390.6 317.9,394.3 			"/>
		</g>
	</g>
</g>
<g>
	<path d="M278.1,380.5l3.4-0.7c0.2,0.6,0.4,1.2,0.6,1.8c0.2,0.9,0.4,1.9,0.5,3.1c0.1,0.6,0.1,1.9,0.3,3.9c1-1.1,1.6-1.7,1.7-2
		c1-1.4,1.6-2.2,1.8-2.5c0.3-0.4,0.4-0.8,0.5-1.1c0.1-0.2,0.1-0.5,0.1-0.7s-0.2-0.4-0.5-0.7s-0.5-0.6-0.5-0.9c0-0.2,0.1-0.5,0.3-0.7
		s0.4-0.3,0.7-0.3c0.3,0,0.6,0.1,0.9,0.4s0.4,0.6,0.4,1s-0.1,0.8-0.2,1.1c-0.2,0.6-0.6,1.3-1.1,2.2s-1.4,2-2.7,3.4
		c-0.2,0.2-1,1.1-2.6,2.7h-0.4c-0.2-4.9-0.6-8-1.2-9.3c-0.2-0.4-0.5-0.6-1-0.6c-0.2,0-0.5,0-0.8,0.1L278.1,380.5z"/>
</g>
<g>
	<path d="M474.8,510.1c1.5,0.6,1.9,0.9,2.4,1.5c0.1,0.1,0.1,0.3,0.1,0.4c0,0.4-0.2,0.8-0.4,0.8c-0.3,0-0.3-0.1-0.6-0.5
		c-0.3-0.6-1-1.4-1.7-1.9L474.8,510.1z"/>
</g>
</svg>
