<?xml version="1.0" encoding="utf-8"?>
<!-- Generator: Adobe Illustrator 26.0.0, SVG Export Plug-In . SVG Version: 6.00 Build 0)  -->
<svg version="1.1" id="图层_1" xmlns="http://www.w3.org/2000/svg" xmlns:xlink="http://www.w3.org/1999/xlink" x="0px" y="0px"
	 viewBox="0 0 842.9 521.2" style="enable-background:new 0 0 842.9 521.2;" xml:space="preserve">
<style type="text/css">
	.st0{fill:none;stroke:#000000;stroke-miterlimit:10;}
</style>
<g>
	<g>
		<g>
			<polyline class="st0" points="350.5,182.2 82.8,182.2 82.8,48.5 			"/>
			<g>
				<path d="M348.7,182.2l-2.2,3.6l0.1,0.1l5.9-2.3c2-0.5,4.1-0.9,6.1-1.4c-2-0.5-4.1-0.9-6.1-1.4l-5.9-2.3l-0.1,0.1L348.7,182.2z"
					/>
			</g>
		</g>
	</g>
	<g>
		<g>
			<polyline class="st0" points="350.5,182.2 70.8,182.2 70.8,48.5 			"/>
			<g>
				<path d="M348.7,182.2l-2.2,3.6l0.1,0.1l5.9-2.3c2-0.5,4.1-0.9,6.1-1.4c-2-0.5-4.1-0.9-6.1-1.4l-5.9-2.3l-0.1,0.1L348.7,182.2z"
					/>
			</g>
		</g>
	</g>
	<path class="st0" d="M358.6,181.3"/>
	<path d="M73.8,45.7h-8.3v-0.2l4.2-5.7l-4.2-5.6V34h8.1l0.2,2.1h-0.3c-0.1-0.6-0.2-1-0.5-1.2c-0.3-0.2-0.6-0.4-1.1-0.4h-4.7l3.5,4.8
		l-4,5.3H72c0.3,0,0.6-0.1,1-0.2c0.2-0.1,0.4-0.2,0.6-0.4s0.3-0.5,0.4-1l0.3,0.1L73.8,45.7z"/>
	<path d="M86.6,45.7h-8.3v-0.2l4.2-5.7l-4.2-5.6V34h8.1l0.2,2.1h-0.3c-0.1-0.6-0.2-1-0.5-1.2c-0.3-0.2-0.6-0.4-1.1-0.4H80l3.5,4.8
		l-4,5.3h5.2c0.3,0,0.6-0.1,1-0.2c0.2-0.1,0.4-0.2,0.6-0.4s0.3-0.5,0.4-1l0.3,0.1L86.6,45.7z"/>
	<path d="M87.7,36.5c0.3-0.1,0.6-0.3,0.8-0.5c0.2-0.2,0.2-0.3,0.2-0.5c0-0.1,0-0.2,0-0.2c0,0-0.1-0.1-0.2-0.2
		c-0.1-0.1-0.2-0.2-0.2-0.2c0-0.1,0-0.1,0-0.2c0-0.2,0.1-0.3,0.2-0.5c0.1-0.1,0.3-0.2,0.4-0.2c0.2,0,0.3,0.1,0.5,0.2
		c0.1,0.1,0.2,0.3,0.2,0.5c0,0.4-0.1,0.8-0.4,1.1c-0.3,0.4-0.7,0.7-1.3,0.9L87.7,36.5z"/>
	<path d="M366.3,178c0.3,0.3,0.5,0.6,0.6,0.9c0.1,0.2,0.3,0.8,0.5,1.7l0.8-1.2c0.2-0.3,0.4-0.6,0.7-0.8c0.3-0.3,0.5-0.4,0.8-0.5
		c0.1-0.1,0.3-0.1,0.5-0.1c0.2,0,0.4,0.1,0.6,0.2c0.1,0.1,0.2,0.3,0.2,0.5c0,0.2,0,0.4-0.1,0.5c-0.2,0.1-0.3,0.2-0.6,0.2
		c-0.1,0-0.3,0-0.4-0.1c-0.3-0.1-0.5-0.1-0.5-0.1c-0.1,0-0.3,0.1-0.5,0.3c-0.4,0.3-0.8,0.9-1.3,1.8l0.7,3.1c0.1,0.5,0.2,0.8,0.3,0.8
		c0.1,0.1,0.2,0.1,0.2,0.1c0.1,0,0.3-0.1,0.4-0.2c0.3-0.3,0.6-0.6,0.8-1.1l0.3,0.2c-0.4,0.7-0.8,1.3-1.4,1.8
		c-0.3,0.3-0.6,0.4-0.8,0.4c-0.3,0-0.6-0.2-0.8-0.6c-0.1-0.2-0.4-1.2-0.8-3c-0.9,1.6-1.6,2.7-2.2,3.1c-0.4,0.3-0.7,0.4-1,0.4
		c-0.2,0-0.4-0.1-0.6-0.3c-0.1-0.1-0.2-0.3-0.2-0.5c0-0.2,0.1-0.4,0.2-0.5c0.1-0.1,0.3-0.2,0.5-0.2c0.2,0,0.4,0.1,0.6,0.3
		c0.2,0.1,0.3,0.2,0.3,0.2c0.1,0,0.2,0,0.3-0.1c0.3-0.2,0.6-0.7,1.1-1.5c0.5-0.8,0.8-1.3,0.9-1.6c-0.4-1.5-0.6-2.2-0.6-2.3
		c-0.1-0.4-0.3-0.7-0.5-0.8s-0.5-0.2-0.9-0.2c-0.1,0-0.3,0-0.5,0v-0.3L366.3,178z"/>
	<rect x="153.3" y="177.3" class="st0" width="0" height="4.9"/>
	<rect x="284.7" y="176.9" class="st0" width="0" height="4.9"/>
	<g>
		<circle class="st0" cx="153.3" cy="205.5" r="17.6"/>
		<g>
			<g>
				<line class="st0" x1="153.3" y1="189" x2="153.3" y2="205.5"/>
				<g>
					<polygon points="149.2,192.3 150,193 153.3,189.4 156.7,193 157.4,192.3 153.3,187.9 					"/>
				</g>
			</g>
		</g>
	</g>
	<g>
		<circle class="st0" cx="284.7" cy="205.5" r="17.6"/>
		<g>
			<g>
				<line class="st0" x1="284.7" y1="189" x2="284.7" y2="205.5"/>
				<g>
					<polygon points="280.6,192.3 281.4,193 284.7,189.4 288.1,193 288.8,192.3 284.7,187.9 					"/>
				</g>
			</g>
		</g>
	</g>
	<g>
		<circle class="st0" cx="153.3" cy="156.1" r="17.6"/>
		<g>
			<g>
				<line class="st0" x1="153.3" y1="139.6" x2="153.3" y2="156.1"/>
				<g>
					<polygon points="149.2,142.9 150,143.6 153.3,140 156.7,143.6 157.4,142.9 153.3,138.5 					"/>
				</g>
			</g>
		</g>
	</g>
</g>
<polyline class="st0" points="789.9,182.2 661.4,182.2 661.4,48.6 "/>
<g>
	<g>
		<polyline class="st0" points="790.5,182.2 518.6,182.2 518.6,48.6 		"/>
		<g>
			<path d="M788.7,182.2l-2.2,3.6l0.1,0.1l5.9-2.3c2-0.5,4.1-0.9,6.1-1.4c-2-0.5-4.1-0.9-6.1-1.4l-5.9-2.3l-0.1,0.1L788.7,182.2z"/>
		</g>
	</g>
</g>
<path class="st0" d="M806.4,181.3"/>
<path d="M521.5,45.8h-8.3v-0.2l4.2-5.7l-4.2-5.6V34h8.1l0.2,2.1h-0.3c-0.1-0.6-0.2-1-0.5-1.2c-0.3-0.2-0.6-0.4-1.1-0.4H515l3.5,4.8
	l-4,5.3h5.2c0.3,0,0.6-0.1,1-0.2c0.2-0.1,0.4-0.2,0.6-0.4c0.2-0.2,0.3-0.5,0.4-1l0.3,0.1L521.5,45.8z"/>
<path d="M665.2,45.8h-8.3v-0.2l4.2-5.7l-4.2-5.6V34h8.1l0.2,2.1h-0.3c-0.1-0.6-0.2-1-0.5-1.2c-0.3-0.2-0.6-0.4-1.1-0.4h-4.7l3.5,4.8
	l-4,5.3h5.2c0.3,0,0.6-0.1,1-0.2c0.2-0.1,0.4-0.2,0.6-0.4c0.2-0.2,0.3-0.5,0.4-1l0.3,0.1L665.2,45.8z"/>
<path d="M666.4,36.6c0.3-0.1,0.6-0.3,0.8-0.5c0.2-0.2,0.2-0.3,0.2-0.5c0-0.1,0-0.2,0-0.2c0,0-0.1-0.1-0.2-0.2
	c-0.1-0.1-0.2-0.2-0.2-0.2c0-0.1,0-0.1,0-0.2c0-0.2,0.1-0.3,0.2-0.5c0.1-0.1,0.3-0.2,0.4-0.2c0.2,0,0.3,0.1,0.5,0.2
	c0.1,0.1,0.2,0.3,0.2,0.5c0,0.4-0.1,0.8-0.4,1.1c-0.3,0.4-0.7,0.7-1.3,0.9L666.4,36.6z"/>
<path d="M794.7,189.3c0.3,0.3,0.5,0.6,0.6,0.9c0.1,0.2,0.3,0.8,0.5,1.7l0.8-1.2c0.2-0.3,0.4-0.6,0.7-0.8c0.3-0.3,0.5-0.4,0.8-0.5
	c0.1-0.1,0.3-0.1,0.5-0.1c0.2,0,0.4,0.1,0.6,0.2s0.2,0.3,0.2,0.5c0,0.2,0,0.4-0.1,0.5c-0.2,0.1-0.3,0.2-0.6,0.2
	c-0.1,0-0.3,0-0.4-0.1c-0.3-0.1-0.5-0.1-0.5-0.1c-0.1,0-0.3,0.1-0.5,0.3c-0.4,0.3-0.8,0.9-1.3,1.8l0.7,3.1c0.1,0.5,0.2,0.8,0.3,0.8
	s0.2,0.1,0.2,0.1c0.1,0,0.3-0.1,0.4-0.2c0.3-0.3,0.6-0.6,0.8-1.1l0.3,0.2c-0.4,0.7-0.8,1.3-1.4,1.8c-0.3,0.3-0.6,0.4-0.8,0.4
	c-0.3,0-0.6-0.2-0.8-0.6c-0.1-0.2-0.4-1.2-0.8-3c-0.9,1.6-1.6,2.7-2.2,3.1c-0.4,0.3-0.7,0.4-1,0.4c-0.2,0-0.4-0.1-0.6-0.3
	c-0.1-0.1-0.2-0.3-0.2-0.5c0-0.2,0.1-0.4,0.2-0.5c0.1-0.1,0.3-0.2,0.5-0.2c0.2,0,0.4,0.1,0.6,0.3c0.2,0.1,0.3,0.2,0.3,0.2
	c0.1,0,0.2,0,0.3-0.1c0.3-0.2,0.6-0.7,1.1-1.5c0.5-0.8,0.8-1.3,0.9-1.6c-0.4-1.5-0.6-2.2-0.6-2.3c-0.1-0.4-0.3-0.7-0.5-0.8
	c-0.2-0.2-0.5-0.2-0.9-0.2c-0.1,0-0.3,0-0.5,0v-0.3L794.7,189.3z"/>
<rect x="601.1" y="177.4" class="st0" width="0" height="4.9"/>
<rect x="732.5" y="177" class="st0" width="0" height="4.9"/>
<g>
	<circle class="st0" cx="601.1" cy="205.6" r="17.6"/>
	<g>
		<g>
			<line class="st0" x1="617.6" y1="203.9" x2="601.1" y2="205.6"/>
			<g>
				<polygon points="613.9,200.2 613.3,201 617.2,204 613.9,207.7 614.7,208.3 618.6,203.8 				"/>
			</g>
		</g>
	</g>
</g>
<g>
	<circle class="st0" cx="732" cy="156.2" r="17.6"/>
	<g>
		<g>
			<line class="st0" x1="744.7" y1="145.6" x2="732" y2="156.2"/>
			<g>
				<polygon points="739.6,144.6 739.5,145.6 744.4,145.9 743.8,150.8 744.8,150.9 745.6,145 				"/>
			</g>
		</g>
	</g>
</g>
<g>
	<circle class="st0" cx="732.5" cy="205.6" r="17.6"/>
	<g>
		<g>
			<line class="st0" x1="749" y1="203.9" x2="732.5" y2="205.6"/>
			<g>
				<polygon points="745.3,200.2 744.7,201 748.6,204 745.3,207.7 746.1,208.3 750,203.8 				"/>
			</g>
		</g>
	</g>
</g>
<g>
	<g>
		<line class="st0" x1="382.7" y1="115.3" x2="450.5" y2="115.3"/>
		<g>
			<path d="M448.7,115.3l-2.2-3.6l0.1-0.1l5.9,2.3c2,0.5,4.1,0.9,6.1,1.4c-2,0.5-4.1,0.9-6.1,1.4l-5.9,2.3l-0.1-0.1L448.7,115.3z"/>
		</g>
	</g>
</g>
<g>
	<g>
		<polyline class="st0" points="352,443.7 84.3,443.7 84.3,310.1 		"/>
		<g>
			<path d="M350.2,443.7l-2.2,3.6l0.1,0.1l5.9-2.3c2-0.5,4.1-0.9,6.1-1.4c-2-0.5-4.1-0.9-6.1-1.4l-5.9-2.3l-0.1,0.1L350.2,443.7z"/>
		</g>
	</g>
</g>
<g>
	<g>
		<polyline class="st0" points="352,443.7 72.3,443.7 72.3,310.1 		"/>
		<g>
			<path d="M350.2,443.7l-2.2,3.6l0.1,0.1l5.9-2.3c2-0.5,4.1-0.9,6.1-1.4c-2-0.5-4.1-0.9-6.1-1.4l-5.9-2.3l-0.1,0.1L350.2,443.7z"/>
		</g>
	</g>
</g>
<path class="st0" d="M360.1,442.8"/>
<path d="M75.3,307.3H67v-0.2l4.2-5.7l-4.2-5.6v-0.2h8.1l0.2,2.1H75c-0.1-0.6-0.2-1-0.5-1.2c-0.3-0.2-0.6-0.4-1.1-0.4h-4.7l3.5,4.8
	l-4,5.3h5.2c0.3,0,0.6-0.1,1-0.2c0.2-0.1,0.4-0.2,0.6-0.4s0.3-0.5,0.4-1l0.3,0.1L75.3,307.3z"/>
<path d="M88.1,307.3h-8.3v-0.2l4.2-5.7l-4.2-5.6v-0.2h8.1l0.2,2.1h-0.3c-0.1-0.6-0.2-1-0.5-1.2c-0.3-0.2-0.6-0.4-1.1-0.4h-4.7
	l3.5,4.8l-4,5.3h5.2c0.3,0,0.6-0.1,1-0.2c0.2-0.1,0.4-0.2,0.6-0.4s0.3-0.5,0.4-1l0.3,0.1L88.1,307.3z"/>
<path d="M89.2,298.1c0.3-0.1,0.6-0.3,0.8-0.5c0.2-0.2,0.2-0.3,0.2-0.5c0-0.1,0-0.2,0-0.2c0,0-0.1-0.1-0.2-0.2
	c-0.1-0.1-0.2-0.2-0.2-0.2c0-0.1,0-0.1,0-0.2c0-0.2,0.1-0.3,0.2-0.5s0.3-0.2,0.4-0.2c0.2,0,0.3,0.1,0.5,0.2s0.2,0.3,0.2,0.5
	c0,0.4-0.1,0.8-0.4,1.1c-0.3,0.4-0.7,0.7-1.3,0.9L89.2,298.1z"/>
<path d="M367.8,439.6c0.3,0.3,0.5,0.6,0.6,0.9c0.1,0.2,0.3,0.8,0.5,1.7l0.8-1.2c0.2-0.3,0.4-0.6,0.7-0.8c0.3-0.3,0.5-0.4,0.8-0.5
	c0.1-0.1,0.3-0.1,0.5-0.1c0.2,0,0.4,0.1,0.6,0.2c0.1,0.1,0.2,0.3,0.2,0.5c0,0.2,0,0.4-0.1,0.5c-0.2,0.1-0.3,0.2-0.6,0.2
	c-0.1,0-0.3,0-0.4-0.1c-0.3-0.1-0.5-0.1-0.5-0.1c-0.1,0-0.3,0.1-0.5,0.3c-0.4,0.3-0.8,0.9-1.3,1.8l0.7,3.1c0.1,0.5,0.2,0.8,0.3,0.8
	c0.1,0.1,0.2,0.1,0.2,0.1c0.1,0,0.3-0.1,0.4-0.2c0.3-0.3,0.6-0.6,0.8-1.1l0.3,0.2c-0.4,0.7-0.8,1.3-1.4,1.8
	c-0.3,0.3-0.6,0.4-0.8,0.4c-0.3,0-0.6-0.2-0.8-0.6c-0.1-0.2-0.4-1.2-0.8-3c-0.9,1.6-1.6,2.7-2.2,3.1c-0.4,0.3-0.7,0.4-1,0.4
	c-0.2,0-0.4-0.1-0.6-0.3c-0.1-0.1-0.2-0.3-0.2-0.5c0-0.2,0.1-0.4,0.2-0.5c0.1-0.1,0.3-0.2,0.5-0.2c0.2,0,0.4,0.1,0.6,0.3
	c0.2,0.1,0.3,0.2,0.3,0.2c0.1,0,0.2,0,0.3-0.1c0.3-0.2,0.6-0.7,1.1-1.5c0.5-0.8,0.8-1.3,0.9-1.6c-0.4-1.5-0.6-2.2-0.6-2.3
	c-0.1-0.4-0.3-0.7-0.5-0.8s-0.5-0.2-0.9-0.2c-0.1,0-0.3,0-0.5,0V440L367.8,439.6z"/>
<rect x="154.9" y="438.9" class="st0" width="0" height="4.9"/>
<rect x="286.3" y="438.5" class="st0" width="0" height="4.9"/>
<g>
	<circle class="st0" cx="154.9" cy="467.1" r="17.6"/>
	<g>
		<g>
			<line class="st0" x1="154.9" y1="450.6" x2="154.9" y2="467.1"/>
			<g>
				<polygon points="150.8,453.9 151.5,454.5 154.9,450.9 158.2,454.5 158.9,453.9 154.9,449.5 				"/>
			</g>
		</g>
	</g>
</g>
<g>
	<circle class="st0" cx="286.3" cy="467.1" r="17.6"/>
	<g>
		<g>
			<line class="st0" x1="297.5" y1="454.9" x2="286.3" y2="467.1"/>
			<g>
				<polygon points="292.2,454.6 292.3,455.6 297.2,455.2 297.2,460.1 298.2,460.1 298.2,454.1 				"/>
			</g>
		</g>
	</g>
</g>
<g>
	<circle class="st0" cx="154.9" cy="417.7" r="17.6"/>
	<g>
		<g>
			<line class="st0" x1="154.9" y1="401.2" x2="154.9" y2="417.7"/>
			<g>
				<polygon points="150.8,404.5 151.5,405.2 154.9,401.6 158.2,405.2 158.9,404.5 154.9,400.1 				"/>
			</g>
		</g>
	</g>
</g>
<polyline class="st0" points="791.4,443.8 663,443.8 663,310.2 "/>
<g>
	<g>
		<polyline class="st0" points="792,443.8 520.1,443.8 520.1,310.2 		"/>
		<g>
			<path d="M790.2,443.8l-2.2,3.6l0.1,0.1l5.9-2.3c2-0.5,4.1-0.9,6.1-1.4c-2-0.5-4.1-0.9-6.1-1.4l-5.9-2.3l-0.1,0.1L790.2,443.8z"/>
		</g>
	</g>
</g>
<path class="st0" d="M807.9,442.9"/>
<path d="M523.1,307.4h-8.3v-0.2l4.2-5.7l-4.2-5.6v-0.2h8.1l0.2,2.1h-0.3c-0.1-0.6-0.2-1-0.5-1.2c-0.3-0.2-0.6-0.4-1.1-0.4h-4.7
	l3.5,4.8l-4,5.3h5.2c0.3,0,0.6-0.1,1-0.2c0.2-0.1,0.4-0.2,0.6-0.4c0.2-0.2,0.3-0.5,0.4-1l0.3,0.1L523.1,307.4z"/>
<path d="M666.7,307.4h-8.3v-0.2l4.2-5.7l-4.2-5.6v-0.2h8.1l0.2,2.1h-0.3c-0.1-0.6-0.2-1-0.5-1.2c-0.3-0.2-0.6-0.4-1.1-0.4h-4.7
	l3.5,4.8l-4,5.3h5.2c0.3,0,0.6-0.1,1-0.2c0.2-0.1,0.4-0.2,0.6-0.4c0.2-0.2,0.3-0.5,0.4-1l0.3,0.1L666.7,307.4z"/>
<path d="M667.9,298.2c0.3-0.1,0.6-0.3,0.8-0.5c0.2-0.2,0.2-0.3,0.2-0.5c0-0.1,0-0.2,0-0.2c0,0-0.1-0.1-0.2-0.2
	c-0.1-0.1-0.2-0.2-0.2-0.2c0-0.1,0-0.1,0-0.2c0-0.2,0.1-0.3,0.2-0.5c0.1-0.1,0.3-0.2,0.4-0.2c0.2,0,0.3,0.1,0.5,0.2
	c0.1,0.1,0.2,0.3,0.2,0.5c0,0.4-0.1,0.8-0.4,1.1c-0.3,0.4-0.7,0.7-1.3,0.9L667.9,298.2z"/>
<path d="M796.2,450.8c0.3,0.3,0.5,0.6,0.6,0.9c0.1,0.2,0.3,0.8,0.5,1.7l0.8-1.2c0.2-0.3,0.4-0.6,0.7-0.8c0.3-0.3,0.5-0.4,0.8-0.5
	c0.1-0.1,0.3-0.1,0.5-0.1c0.2,0,0.4,0.1,0.6,0.2s0.2,0.3,0.2,0.5c0,0.2,0,0.4-0.1,0.5c-0.2,0.1-0.3,0.2-0.6,0.2
	c-0.1,0-0.3,0-0.4-0.1c-0.3-0.1-0.5-0.1-0.5-0.1c-0.1,0-0.3,0.1-0.5,0.3c-0.4,0.3-0.8,0.9-1.3,1.8l0.7,3.1c0.1,0.5,0.2,0.8,0.3,0.8
	s0.2,0.1,0.2,0.1c0.1,0,0.3-0.1,0.4-0.2c0.3-0.3,0.6-0.6,0.8-1.1l0.3,0.2c-0.4,0.7-0.8,1.3-1.4,1.8c-0.3,0.3-0.6,0.4-0.8,0.4
	c-0.3,0-0.6-0.2-0.8-0.6c-0.1-0.2-0.4-1.2-0.8-3c-0.9,1.6-1.6,2.7-2.2,3.1c-0.4,0.3-0.7,0.4-1,0.4c-0.2,0-0.4-0.1-0.6-0.3
	c-0.1-0.1-0.2-0.3-0.2-0.5c0-0.2,0.1-0.4,0.2-0.5c0.1-0.1,0.3-0.2,0.5-0.2s0.4,0.1,0.6,0.3c0.2,0.1,0.3,0.2,0.3,0.2
	c0.1,0,0.2,0,0.3-0.1c0.3-0.2,0.6-0.7,1.1-1.5c0.5-0.8,0.8-1.3,0.9-1.6c-0.4-1.5-0.6-2.2-0.6-2.3c-0.1-0.4-0.3-0.7-0.5-0.8
	s-0.5-0.2-0.9-0.2c-0.1,0-0.3,0-0.5,0v-0.3L796.2,450.8z"/>
<rect x="602.6" y="438.9" class="st0" width="0" height="4.9"/>
<rect x="734" y="438.6" class="st0" width="0" height="4.9"/>
<g>
	<circle class="st0" cx="602.6" cy="467.2" r="17.6"/>
	<g>
		<g>
			<line class="st0" x1="613.1" y1="454.4" x2="602.6" y2="467.2"/>
			<g>
				<polygon points="607.8,454.3 608,455.3 612.9,454.6 613.2,459.6 614.2,459.5 613.8,453.5 				"/>
			</g>
		</g>
	</g>
</g>
<g>
	<circle class="st0" cx="733.5" cy="417.8" r="17.6"/>
	<g>
		<g>
			<line class="st0" x1="746.2" y1="407.2" x2="733.5" y2="417.8"/>
			<g>
				<polygon points="741.1,406.2 741,407.2 745.9,407.5 745.3,412.4 746.3,412.5 747.1,406.5 				"/>
			</g>
		</g>
	</g>
</g>
<g>
	<circle class="st0" cx="734" cy="467.2" r="17.6"/>
	<g>
		<g>
			<line class="st0" x1="750.5" y1="465.5" x2="734" y2="467.2"/>
			<g>
				<polygon points="746.8,461.8 746.2,462.6 750.1,465.5 746.8,469.2 747.6,469.9 751.6,465.4 				"/>
			</g>
		</g>
	</g>
</g>
<g>
	<g>
		<line class="st0" x1="384.2" y1="376.9" x2="452" y2="376.9"/>
		<g>
			<path d="M450.2,376.9l-2.2-3.6l0.1-0.1l5.9,2.3c2,0.5,4.1,0.9,6.1,1.4c-2,0.5-4.1,0.9-6.1,1.4l-5.9,2.3l-0.1-0.1L450.2,376.9z"/>
		</g>
	</g>
</g>
<g>
	<path d="M295.1,468c-0.1-0.1-0.2-0.3-0.5-0.6c-0.4-0.5-0.6-0.9-0.6-1.3c0-0.3,0.1-0.6,0.3-0.8c0.2-0.2,0.5-0.3,0.9-0.3
		c0.3,0,0.7,0.1,0.9,0.2s0.4,0.3,0.4,0.5c0,0.1,0,0.2-0.1,0.3c-0.1,0.1-0.2,0.1-0.3,0.1c-0.2,0-0.3-0.1-0.4-0.3
		c-0.2-0.3-0.3-0.4-0.4-0.5c-0.1-0.1-0.2-0.1-0.3-0.1c-0.2,0-0.3,0.1-0.5,0.2s-0.2,0.3-0.2,0.4c0,0.1,0,0.3,0.1,0.4s0.3,0.4,0.7,0.7
		c0.4,0.3,0.7,0.7,0.9,1s0.3,0.7,0.3,1.2c0,0.8-0.3,1.5-0.9,2.2c-0.6,0.7-1.2,1-1.9,1c-0.5,0-0.8-0.1-1.1-0.4
		c-0.3-0.3-0.4-0.7-0.4-1.1c0-0.7,0.3-1.3,0.8-1.8C293.3,468.6,294.1,468.2,295.1,468z M295.2,468.2c-0.6,0.1-1,0.3-1.4,0.7
		s-0.6,0.7-0.8,1.2s-0.3,0.9-0.3,1.3c0,0.6,0.2,1,0.7,1c0.5,0,1-0.4,1.3-1.1c0.4-0.8,0.5-1.4,0.5-2
		C295.4,468.7,295.4,468.4,295.2,468.2z"/>
</g>
<g>
	<g>
		<line class="st0" x1="94.3" y1="89" x2="121.6" y2="89"/>
		<g>
			<path d="M119.8,89l-2.2-3.6l0.1-0.1l5.9,2.3c2,0.5,4.1,0.9,6.1,1.4c-2,0.5-4.1,0.9-6.1,1.4l-5.9,2.3l-0.1-0.1L119.8,89z"/>
		</g>
	</g>
</g>
<g>
	<path d="M103.6,93.7l3-0.6c0.2,0.5,0.4,1,0.5,1.5c0.2,0.8,0.3,1.7,0.5,2.7c0.1,0.5,0.1,1.7,0.2,3.4c0.9-0.9,1.4-1.5,1.5-1.8
		c0.9-1.2,1.4-1.9,1.6-2.2c0.2-0.4,0.4-0.7,0.5-1c0.1-0.2,0.1-0.4,0.1-0.6c0-0.2-0.2-0.4-0.5-0.6c-0.3-0.2-0.5-0.5-0.5-0.8
		c0-0.2,0.1-0.4,0.3-0.6c0.2-0.2,0.4-0.3,0.6-0.3c0.3,0,0.5,0.1,0.8,0.4c0.2,0.2,0.3,0.5,0.3,0.9c0,0.3-0.1,0.7-0.2,1
		c-0.2,0.5-0.5,1.2-1,1.9c-0.5,0.7-1.3,1.8-2.3,3c-0.1,0.2-0.9,0.9-2.3,2.4h-0.4c-0.2-4.3-0.5-7-1-8.1c-0.2-0.3-0.5-0.5-0.9-0.5
		c-0.2,0-0.4,0-0.7,0.1L103.6,93.7z"/>
</g>
<g>
	<g>
		<line class="st0" x1="69.6" y1="367.8" x2="41.4" y2="367.8"/>
		<g>
			<path d="M43.2,367.8l2.2,3.6l-0.1,0.1l-5.9-2.3c-2-0.5-4.1-0.9-6.1-1.4c2-0.5,4.1-0.9,6.1-1.4l5.9-2.3l0.1,0.1L43.2,367.8z"/>
		</g>
	</g>
</g>
<g>
	<path d="M52,372l3-0.6c0.2,0.5,0.4,1,0.5,1.5c0.2,0.8,0.3,1.7,0.5,2.7c0.1,0.5,0.1,1.7,0.2,3.4c0.9-0.9,1.4-1.5,1.5-1.8
		c0.9-1.2,1.4-1.9,1.6-2.2c0.2-0.4,0.4-0.7,0.5-1c0.1-0.2,0.1-0.4,0.1-0.6c0-0.2-0.2-0.4-0.5-0.6c-0.3-0.2-0.5-0.5-0.5-0.8
		c0-0.2,0.1-0.4,0.3-0.6c0.2-0.2,0.4-0.3,0.6-0.3c0.3,0,0.5,0.1,0.8,0.4c0.2,0.2,0.3,0.5,0.3,0.9c0,0.3-0.1,0.7-0.2,1
		c-0.2,0.5-0.5,1.2-1,1.9c-0.5,0.7-1.3,1.8-2.3,3c-0.1,0.2-0.9,0.9-2.3,2.4h-0.4c-0.2-4.3-0.5-7-1-8.1c-0.2-0.3-0.5-0.5-0.9-0.5
		c-0.2,0-0.4,0-0.7,0.1L52,372z"/>
</g>
</svg>
