<?xml version="1.0" encoding="utf-8"?>
<!-- Generator: Adobe Illustrator 26.0.0, SVG Export Plug-In . SVG Version: 6.00 Build 0)  -->
<svg version="1.1" id="图层_1" xmlns="http://www.w3.org/2000/svg" xmlns:xlink="http://www.w3.org/1999/xlink" x="0px" y="0px"
	 viewBox="0 0 595.3 841.9" style="enable-background:new 0 0 595.3 841.9;" xml:space="preserve">
<style type="text/css">
	.st0{fill:#FFFFFF;}
	.st1{fill:none;stroke:#000000;stroke-miterlimit:10;}
	.st2{stroke:#000000;stroke-miterlimit:10;}
	.st3{fill:none;stroke:#000000;stroke-miterlimit:10;stroke-dasharray:12.6335,12.6335;}
	.st4{fill:none;stroke:#000000;stroke-miterlimit:10;stroke-dasharray:11.4217,11.4217;}
</style>
<g>
	<polyline class="st0" points="452.7,449 238,449 238,296.7 	"/>
	<g>
		<polyline class="st1" points="444.6,449 238,449 238,304.9 		"/>
		<g>
			<path d="M442.8,449l-2.2,3.6l0.1,0.1l5.9-2.3c2-0.5,4.1-0.9,6.1-1.4c-2-0.5-4.1-0.9-6.1-1.4l-5.9-2.3l-0.1,0.1L442.8,449z"/>
		</g>
		<g>
			<path d="M238,306.7l-3.6,2.2l-0.1-0.1l2.3-5.9c0.5-2,0.9-4.1,1.4-6.1c0.5,2,0.9,4.1,1.4,6.1l2.3,5.9l-0.1,0.1L238,306.7z"/>
		</g>
	</g>
</g>
<g>
	<g>
		<line class="st1" x1="173.4" y1="529.1" x2="238" y2="449"/>
		<g>
			<path d="M174.5,527.7l-1.4-4l-0.1,0l-1.9,6c-0.9,1.9-1.9,3.8-2.8,5.6c1.6-1.3,3.3-2.6,4.9-3.9l5.5-3.1l0-0.1L174.5,527.7z"/>
		</g>
	</g>
</g>
<circle class="st2" cx="264.9" cy="374.9" r="1"/>
<circle class="st2" cx="346.8" cy="314.4" r="1"/>
<g>
	<g>
		<line class="st1" x1="340.2" y1="319.3" x2="264.9" y2="374.9"/>
		<g>
			<path d="M338.8,320.3l0.4,4.2l0.1,0l3.3-5.4c1.4-1.6,2.8-3.2,4.1-4.7c-1.9,0.9-3.8,1.7-5.7,2.6l-6.1,1.6l-0.1,0.1L338.8,320.3z"
				/>
		</g>
	</g>
</g>
<path d="M161.4,521.5c0.3,0.4,0.6,0.7,0.8,1.1c0.1,0.2,0.3,0.9,0.6,1.9l0.9-1.4c0.2-0.3,0.5-0.6,0.9-0.9c0.3-0.3,0.6-0.5,0.9-0.6
	c0.2-0.1,0.3-0.1,0.5-0.1c0.3,0,0.5,0.1,0.7,0.2c0.2,0.2,0.3,0.3,0.3,0.6c0,0.3-0.1,0.4-0.2,0.5c-0.2,0.2-0.4,0.3-0.7,0.3
	c-0.1,0-0.3,0-0.5-0.1c-0.3-0.1-0.5-0.2-0.6-0.2c-0.2,0-0.4,0.1-0.6,0.3c-0.4,0.4-0.9,1-1.5,2.1l0.8,3.5c0.1,0.5,0.2,0.9,0.3,1
	c0.1,0.1,0.2,0.2,0.3,0.2c0.1,0,0.3-0.1,0.5-0.2c0.4-0.3,0.7-0.7,1-1.2l0.4,0.2c-0.4,0.8-1,1.5-1.6,2c-0.4,0.3-0.7,0.5-1,0.5
	c-0.4,0-0.7-0.2-0.9-0.6c-0.1-0.3-0.4-1.4-0.9-3.4c-1.1,1.9-1.9,3-2.6,3.6c-0.4,0.3-0.8,0.5-1.2,0.5c-0.3,0-0.5-0.1-0.7-0.3
	c-0.2-0.2-0.2-0.4-0.2-0.6c0-0.2,0.1-0.4,0.2-0.6c0.2-0.1,0.3-0.2,0.6-0.2s0.5,0.1,0.7,0.3c0.2,0.2,0.3,0.2,0.4,0.2
	c0.1,0,0.2-0.1,0.3-0.2c0.3-0.3,0.8-0.8,1.3-1.7s0.9-1.5,1.1-1.9c-0.4-1.7-0.7-2.5-0.7-2.6c-0.2-0.4-0.4-0.8-0.6-0.9
	c-0.3-0.2-0.6-0.3-1.1-0.3c-0.2,0-0.3,0-0.5,0V522L161.4,521.5z"/>
<path d="M452.3,456.7c0.2,0.4,0.4,0.8,0.5,1.1c0.1,0.3,0.2,1,0.3,2l0.5,5c0.4-0.5,1-1.3,1.8-2.3c0.4-0.5,0.8-1.2,1.4-2.1
	c0.3-0.5,0.5-0.9,0.6-1.1c0-0.1,0.1-0.2,0.1-0.3c0-0.1,0-0.1-0.1-0.2s-0.2-0.1-0.4-0.2c-0.2-0.1-0.4-0.2-0.5-0.4
	c-0.1-0.2-0.2-0.4-0.2-0.6c0-0.3,0.1-0.5,0.2-0.7s0.4-0.3,0.6-0.3c0.3,0,0.6,0.1,0.8,0.4c0.2,0.2,0.3,0.6,0.3,1
	c0,0.5-0.2,1.2-0.6,1.9c-0.4,0.7-1.1,1.8-2.1,3.2s-2.3,3-3.8,4.7c-1,1.2-1.8,1.9-2.3,2.2c-0.5,0.3-0.9,0.5-1.3,0.5
	c-0.2,0-0.4-0.1-0.6-0.2c-0.2-0.2-0.2-0.3-0.2-0.6c0-0.3,0.1-0.5,0.3-0.7c0.2-0.2,0.5-0.3,0.7-0.3c0.1,0,0.2,0,0.3,0.1
	c0.1,0,0.1,0.1,0.2,0.3c0.1,0.2,0.1,0.3,0.2,0.3c0,0,0.1,0.1,0.1,0.1c0,0,0.1,0,0.2-0.1c0.4-0.2,0.8-0.6,1.3-1.1
	c0.7-0.7,1.1-1.2,1.5-1.6l-0.6-6.5c-0.1-1.1-0.2-1.7-0.4-2s-0.5-0.3-1-0.3c-0.1,0-0.4,0-0.8,0.1l-0.1-0.4L452.3,456.7z"/>
<path d="M226.1,300.4h6.5v0.3l-7.1,7.4h3c0.7,0,1.2,0,1.4-0.1s0.4-0.2,0.5-0.3c0.2-0.2,0.3-0.5,0.5-1h0.4l-0.9,2.8h-6.7v-0.3
	l7.1-7.4h-3c-0.6,0-1,0-1.1,0.1c-0.2,0-0.4,0.1-0.6,0.3c-0.2,0.2-0.4,0.5-0.6,0.9h-0.4L226.1,300.4z"/>
<path d="M251.3,368.9h5.5c1.4,0,2.5,0.3,3.2,0.9c0.7,0.6,1.1,1.4,1.1,2.3c0,0.7-0.2,1.4-0.7,2.1c-0.5,0.7-1.1,1.2-2,1.6
	c-0.9,0.4-1.8,0.6-2.9,0.6c-0.6,0-1.5-0.1-2.5-0.3l-1.1,3.8c-0.3,0.9-0.4,1.5-0.4,1.8c0,0.2,0.1,0.4,0.3,0.5
	c0.2,0.1,0.6,0.2,1.3,0.3l-0.1,0.4h-5.5l0.1-0.4c0.7,0,1.2-0.1,1.5-0.4c0.3-0.2,0.6-0.9,0.9-2.1l2.3-7.9c0.3-1,0.4-1.6,0.4-1.9
	c0-0.2-0.1-0.4-0.3-0.6c-0.2-0.2-0.6-0.3-1.3-0.3L251.3,368.9z M253.2,375.4c0.8,0.2,1.4,0.3,1.9,0.3c0.7,0,1.4-0.2,2-0.5
	c0.6-0.3,1.1-0.8,1.4-1.4c0.3-0.6,0.5-1.3,0.5-1.9c0-0.7-0.2-1.2-0.6-1.6s-1.1-0.6-1.9-0.6c-0.5,0-1,0.1-1.7,0.2L253.2,375.4z"/>
<path d="M356.9,325.6l-2.6,2.1c0.4-0.1,0.8-0.1,1.2-0.1c0.3,0,0.7,0,0.9,0.1c0.3,0,0.9,0.2,1.9,0.4c1,0.2,1.8,0.3,2.5,0.3
	c0.8,0,1.4-0.1,1.9-0.4c0.5-0.3,1-0.7,1.5-1.3l0.3,0.2c-0.7,1-1.5,1.7-2.5,2.2c-1,0.4-2,0.7-3,0.7c-0.6,0-1.4-0.1-2.4-0.3
	c-1.6-0.3-2.7-0.5-3.3-0.5c-0.2,0-0.4,0-0.6,0.1s-0.4,0.1-0.7,0.2l-0.2-0.3l4.2-3.3c-1.3-0.2-2.3-0.7-3-1.7c-0.7-1-1-2-1-3.1
	c0-1.5,0.5-3,1.4-4.6c0.9-1.6,2.1-2.8,3.5-3.7c1.4-0.9,2.8-1.3,4.2-1.3c1,0,1.9,0.2,2.6,0.6c0.7,0.4,1.3,1,1.7,1.8s0.6,1.6,0.6,2.4
	c0,1.6-0.4,3.2-1.3,4.8s-2,2.8-3.3,3.7C359.8,325.1,358.4,325.5,356.9,325.6z M360.8,311.7c-0.7,0-1.4,0.2-2,0.5
	c-0.7,0.3-1.3,0.9-1.9,1.7c-0.6,0.8-1.2,1.8-1.7,3c-0.6,1.5-0.9,3-0.9,4.3c0,1,0.2,1.8,0.7,2.6c0.5,0.7,1.3,1.1,2.3,1.1
	c0.6,0,1.2-0.2,1.8-0.5s1.2-0.8,1.9-1.6c0.8-0.9,1.5-2.1,2.1-3.6c0.6-1.5,0.8-2.8,0.8-4.1c0-0.9-0.2-1.7-0.7-2.5
	C362.5,312,361.8,311.7,360.8,311.7z"/>
<line class="st1" x1="264.9" y1="475.3" x2="346.8" y2="497.7"/>
<g>
	<g>
		<line class="st1" x1="264.9" y1="374.9" x2="264.9" y2="380.9"/>
		<line class="st3" x1="264.9" y1="393.5" x2="264.9" y2="463"/>
		<line class="st1" x1="264.9" y1="469.3" x2="264.9" y2="475.3"/>
	</g>
</g>
<g>
	<g>
		<line class="st1" x1="346.8" y1="314.4" x2="346.8" y2="320.4"/>
		<line class="st4" x1="346.8" y1="331.8" x2="346.8" y2="486"/>
		<line class="st1" x1="346.8" y1="491.7" x2="346.8" y2="497.7"/>
	</g>
</g>
<path d="M244.1,470.8h5.5c1.4,0,2.5,0.3,3.2,0.9c0.7,0.6,1.1,1.4,1.1,2.3c0,0.7-0.2,1.4-0.7,2.1c-0.5,0.7-1.1,1.2-2,1.6
	c-0.9,0.4-1.8,0.6-2.9,0.6c-0.6,0-1.5-0.1-2.5-0.3l-1.1,3.8c-0.3,0.9-0.4,1.5-0.4,1.8c0,0.2,0.1,0.4,0.3,0.5
	c0.2,0.1,0.6,0.2,1.3,0.3l-0.1,0.4h-5.5l0.1-0.4c0.7,0,1.2-0.1,1.5-0.4c0.3-0.2,0.6-0.9,0.9-2.1l2.3-7.9c0.3-1,0.4-1.6,0.4-1.9
	c0-0.2-0.1-0.4-0.3-0.6c-0.2-0.2-0.6-0.3-1.3-0.3L244.1,470.8z M246,477.2c0.8,0.2,1.4,0.3,1.9,0.3c0.7,0,1.4-0.2,2-0.5
	c0.6-0.3,1.1-0.8,1.4-1.4c0.3-0.6,0.5-1.3,0.5-1.9c0-0.7-0.2-1.2-0.6-1.6s-1.1-0.6-1.9-0.6c-0.5,0-1,0.1-1.7,0.2L246,477.2z"/>
<g>
	<path d="M255.4,474.4c0.8-0.3,1.4-0.8,1.9-1.3c0.4-0.4,0.6-0.8,0.6-1.2c0-0.2,0-0.4-0.1-0.5c0-0.1-0.2-0.2-0.4-0.5
		c-0.2-0.2-0.4-0.4-0.4-0.5c-0.1-0.2-0.1-0.4-0.1-0.6c0-0.4,0.2-0.8,0.5-1.2c0.3-0.3,0.7-0.5,1.1-0.5c0.4,0,0.8,0.2,1.1,0.5
		c0.3,0.3,0.5,0.8,0.5,1.3c0,0.9-0.4,1.9-1.1,2.8c-0.7,0.9-1.8,1.7-3.2,2.2L255.4,474.4z"/>
</g>
<path d="M355.9,504.7l-2.6,2.1c0.4-0.1,0.8-0.1,1.2-0.1c0.3,0,0.7,0,0.9,0.1c0.3,0,0.9,0.2,1.9,0.4c1,0.2,1.8,0.3,2.5,0.3
	c0.8,0,1.4-0.1,1.9-0.4c0.5-0.3,1-0.7,1.5-1.3l0.3,0.2c-0.7,1-1.5,1.7-2.5,2.2c-1,0.4-2,0.7-3,0.7c-0.6,0-1.4-0.1-2.4-0.3
	c-1.6-0.3-2.7-0.5-3.3-0.5c-0.2,0-0.4,0-0.6,0.1s-0.4,0.1-0.7,0.2l-0.2-0.3l4.2-3.3c-1.3-0.2-2.3-0.7-3-1.7c-0.7-1-1-2-1-3.1
	c0-1.5,0.5-3,1.4-4.6c0.9-1.6,2.1-2.8,3.5-3.7c1.4-0.9,2.8-1.3,4.2-1.3c1,0,1.9,0.2,2.6,0.6c0.7,0.4,1.3,1,1.7,1.8s0.6,1.6,0.6,2.4
	c0,1.6-0.4,3.2-1.3,4.8s-2,2.8-3.3,3.7C358.8,504.3,357.4,504.7,355.9,504.7z M359.7,490.8c-0.7,0-1.4,0.2-2,0.5
	c-0.7,0.3-1.3,0.9-1.9,1.7c-0.6,0.8-1.2,1.8-1.7,3c-0.6,1.5-0.9,3-0.9,4.3c0,1,0.2,1.8,0.7,2.6c0.5,0.7,1.3,1.1,2.3,1.1
	c0.6,0,1.2-0.2,1.8-0.5s1.2-0.8,1.9-1.6c0.8-0.9,1.5-2.1,2.1-3.6c0.6-1.5,0.8-2.8,0.8-4.1c0-0.9-0.2-1.7-0.7-2.5
	C361.5,491.2,360.7,490.8,359.7,490.8z"/>
<g>
	<path d="M366.3,495.1c0.8-0.3,1.4-0.8,1.9-1.3c0.4-0.4,0.6-0.8,0.6-1.2c0-0.2,0-0.4-0.1-0.5c0-0.1-0.2-0.2-0.4-0.5
		s-0.4-0.4-0.4-0.5c-0.1-0.2-0.1-0.4-0.1-0.6c0-0.4,0.2-0.8,0.5-1.2c0.3-0.3,0.7-0.5,1.1-0.5c0.4,0,0.8,0.2,1.1,0.5
		c0.3,0.3,0.5,0.8,0.5,1.3c0,0.9-0.4,1.9-1.1,2.8c-0.7,0.9-1.8,1.7-3.2,2.2L366.3,495.1z"/>
</g>
<g>
	<path d="M267,517.7v19.1h-0.9v-19.1H267z"/>
	<path d="M272.8,518.3h5.5c1.4,0,2.5,0.3,3.2,0.9c0.7,0.6,1.1,1.4,1.1,2.3c0,0.7-0.2,1.4-0.7,2.1s-1.1,1.2-2,1.6
		c-0.9,0.4-1.8,0.6-2.9,0.6c-0.6,0-1.5-0.1-2.5-0.3l-1.1,3.8c-0.3,0.9-0.4,1.5-0.4,1.8c0,0.2,0.1,0.4,0.3,0.5s0.6,0.2,1.3,0.3
		l-0.1,0.4H269l0.1-0.4c0.7,0,1.2-0.1,1.5-0.4c0.3-0.2,0.6-0.9,0.9-2.1l2.3-7.9c0.3-0.9,0.4-1.6,0.4-1.9c0-0.2-0.1-0.4-0.3-0.6
		c-0.2-0.2-0.6-0.3-1.3-0.3L272.8,518.3z M274.7,524.8c0.8,0.2,1.4,0.3,1.9,0.3c0.7,0,1.4-0.2,2-0.5c0.6-0.3,1.1-0.8,1.4-1.4
		c0.3-0.6,0.5-1.3,0.5-1.9c0-0.7-0.2-1.2-0.6-1.6s-1.1-0.6-1.9-0.6c-0.5,0-1,0.1-1.7,0.2L274.7,524.8z"/>
	<path d="M288.5,532.6l-2.6,2.1c0.4-0.1,0.8-0.1,1.2-0.1c0.3,0,0.7,0,0.9,0.1s0.9,0.2,1.9,0.4c1,0.2,1.8,0.3,2.5,0.3
		c0.8,0,1.4-0.1,1.9-0.4c0.5-0.3,1-0.7,1.5-1.3l0.3,0.2c-0.7,1-1.5,1.7-2.5,2.2c-1,0.4-2,0.7-3,0.7c-0.6,0-1.4-0.1-2.4-0.3
		c-1.6-0.3-2.7-0.5-3.3-0.5c-0.2,0-0.4,0-0.6,0.1s-0.4,0.1-0.7,0.2l-0.2-0.3l4.2-3.3c-1.3-0.2-2.3-0.7-3-1.7s-1-2-1-3.1
		c0-1.5,0.5-3,1.4-4.6c0.9-1.6,2.1-2.8,3.5-3.7c1.4-0.9,2.8-1.3,4.2-1.3c1,0,1.9,0.2,2.6,0.6s1.3,1,1.7,1.8c0.4,0.8,0.6,1.6,0.6,2.4
		c0,1.6-0.4,3.2-1.3,4.8s-2,2.8-3.3,3.7C291.4,532.1,290,532.5,288.5,532.6z M292.3,518.7c-0.7,0-1.4,0.2-2,0.5
		c-0.7,0.3-1.3,0.9-1.9,1.7c-0.6,0.8-1.2,1.8-1.7,3c-0.6,1.5-0.9,3-0.9,4.3c0,1,0.2,1.8,0.7,2.6c0.5,0.7,1.3,1.1,2.3,1.1
		c0.6,0,1.2-0.2,1.8-0.5s1.2-0.8,1.9-1.6c0.8-0.9,1.5-2.1,2.1-3.6s0.8-2.8,0.8-4.1c0-0.9-0.2-1.7-0.7-2.5S293.4,518.7,292.3,518.7z"
		/>
	<path d="M300.8,517.7v19.1H300v-19.1H300.8z"/>
	<path d="M307.5,525.2h-4V525c2.1-1.8,3.4-3.2,4.1-4.2c0.3-0.5,0.5-1,0.5-1.5c0-0.4-0.1-0.8-0.4-1c-0.3-0.3-0.6-0.4-1-0.4
		c-0.6,0-1,0.3-1.4,0.8l-0.2-0.1c0.2-0.5,0.5-0.9,0.9-1.2c0.4-0.3,0.8-0.4,1.3-0.4c0.5,0,0.9,0.2,1.3,0.5c0.4,0.4,0.5,0.8,0.5,1.3
		c0,0.4-0.1,0.7-0.2,1c-0.2,0.5-0.5,1-1.1,1.6c-0.8,0.9-1.8,1.9-3.1,3.1h2c0.3,0,0.6-0.1,0.8-0.2c0.2-0.1,0.4-0.3,0.5-0.5h0.2
		L307.5,525.2z"/>
	<path d="M316.7,523.2h11.1v0.8h-11.1V523.2z M316.7,526.5h11.1v0.8h-11.1V526.5z"/>
	<path d="M337.7,523c0.3,0.4,0.6,0.7,0.8,1.1c0.1,0.2,0.3,0.9,0.6,1.9l0.9-1.4c0.2-0.3,0.5-0.6,0.9-0.9c0.3-0.3,0.6-0.5,0.9-0.6
		c0.2-0.1,0.3-0.1,0.5-0.1c0.3,0,0.5,0.1,0.7,0.2c0.2,0.2,0.3,0.3,0.3,0.6c0,0.3-0.1,0.4-0.2,0.5c-0.2,0.2-0.4,0.3-0.7,0.3
		c-0.1,0-0.3,0-0.5-0.1c-0.3-0.1-0.5-0.2-0.6-0.2c-0.2,0-0.4,0.1-0.6,0.3c-0.4,0.4-0.9,1-1.5,2.1l0.8,3.5c0.1,0.5,0.2,0.9,0.3,1
		c0.1,0.1,0.2,0.2,0.3,0.2c0.1,0,0.3-0.1,0.5-0.2c0.4-0.3,0.7-0.7,1-1.2l0.4,0.2c-0.4,0.8-1,1.5-1.6,2c-0.4,0.3-0.7,0.5-1,0.5
		c-0.4,0-0.7-0.2-0.9-0.6c-0.1-0.3-0.4-1.4-0.9-3.4c-1.1,1.9-1.9,3-2.6,3.6c-0.4,0.3-0.8,0.5-1.2,0.5c-0.3,0-0.5-0.1-0.7-0.3
		c-0.2-0.2-0.2-0.4-0.2-0.6c0-0.2,0.1-0.4,0.2-0.6c0.2-0.1,0.3-0.2,0.6-0.2s0.5,0.1,0.7,0.3c0.2,0.2,0.3,0.2,0.4,0.2
		c0.1,0,0.2-0.1,0.3-0.2c0.3-0.3,0.8-0.8,1.3-1.7s0.9-1.5,1.1-1.9c-0.4-1.7-0.7-2.5-0.7-2.6c-0.2-0.4-0.4-0.8-0.6-0.9
		c-0.3-0.2-0.6-0.3-1.1-0.3c-0.2,0-0.3,0-0.5,0v-0.4L337.7,523z"/>
	<path d="M347.6,525.2h-4V525c2.1-1.8,3.4-3.2,4.1-4.2c0.3-0.5,0.5-1,0.5-1.5c0-0.4-0.1-0.8-0.4-1c-0.3-0.3-0.6-0.4-1-0.4
		c-0.6,0-1,0.3-1.4,0.8l-0.2-0.1c0.2-0.5,0.5-0.9,0.9-1.2c0.4-0.3,0.8-0.4,1.3-0.4c0.5,0,0.9,0.2,1.3,0.5c0.4,0.4,0.5,0.8,0.5,1.3
		c0,0.4-0.1,0.7-0.2,1c-0.2,0.5-0.5,1-1.1,1.6c-0.8,0.9-1.8,1.9-3.1,3.1h2c0.3,0,0.6-0.1,0.8-0.2c0.2-0.1,0.4-0.3,0.5-0.5h0.2
		L347.6,525.2z"/>
	<path d="M356.6,530.8v-5.1h-5.1v-0.8h5.1v-5.1h0.8v5.1h5.1v0.8h-5.1v5.1H356.6z"/>
	<path d="M367.1,523c0.2,0.4,0.4,0.8,0.5,1.1c0.1,0.3,0.2,1,0.3,2l0.5,5c0.4-0.5,1-1.3,1.8-2.3c0.4-0.5,0.8-1.2,1.4-2.1
		c0.3-0.5,0.5-0.9,0.6-1.1c0-0.1,0.1-0.2,0.1-0.3c0-0.1,0-0.1-0.1-0.2s-0.2-0.1-0.4-0.2c-0.2-0.1-0.4-0.2-0.5-0.4
		c-0.1-0.2-0.2-0.4-0.2-0.6c0-0.3,0.1-0.5,0.2-0.7s0.4-0.3,0.6-0.3c0.3,0,0.6,0.1,0.8,0.4c0.2,0.2,0.3,0.6,0.3,1
		c0,0.5-0.2,1.2-0.6,1.9c-0.4,0.7-1.1,1.8-2.1,3.2s-2.3,3-3.8,4.7c-1,1.2-1.8,1.9-2.3,2.2c-0.5,0.3-0.9,0.5-1.3,0.5
		c-0.2,0-0.4-0.1-0.6-0.2c-0.2-0.2-0.2-0.3-0.2-0.6c0-0.3,0.1-0.5,0.3-0.7c0.2-0.2,0.5-0.3,0.7-0.3c0.1,0,0.2,0,0.3,0.1
		c0.1,0,0.1,0.1,0.2,0.3c0.1,0.2,0.1,0.3,0.2,0.3c0,0,0.1,0.1,0.1,0.1c0,0,0.1,0,0.2-0.1c0.4-0.2,0.8-0.6,1.3-1.1
		c0.7-0.7,1.1-1.2,1.5-1.6l-0.6-6.5c-0.1-1.1-0.2-1.7-0.4-2s-0.5-0.3-1-0.3c-0.1,0-0.4,0-0.8,0.1l-0.1-0.4L367.1,523z"/>
	<path d="M377.2,525.2h-4V525c2.1-1.8,3.4-3.2,4.1-4.2c0.3-0.5,0.5-1,0.5-1.5c0-0.4-0.1-0.8-0.4-1c-0.3-0.3-0.6-0.4-1-0.4
		c-0.6,0-1,0.3-1.4,0.8l-0.2-0.1c0.2-0.5,0.5-0.9,0.9-1.2c0.4-0.3,0.8-0.4,1.3-0.4c0.5,0,0.9,0.2,1.3,0.5c0.4,0.4,0.5,0.8,0.5,1.3
		c0,0.4-0.1,0.7-0.2,1c-0.2,0.5-0.5,1-1.1,1.6c-0.8,0.9-1.8,1.9-3.1,3.1h2c0.3,0,0.6-0.1,0.8-0.2c0.2-0.1,0.4-0.3,0.5-0.5h0.2
		L377.2,525.2z"/>
	<path d="M386.2,530.8v-5.1h-5.1v-0.8h5.1v-5.1h0.8v5.1h5.1v0.8H387v5.1H386.2z"/>
	<path d="M395.1,523.2h6.5v0.3l-7.1,7.4h3c0.7,0,1.2,0,1.4-0.1s0.4-0.2,0.5-0.3c0.2-0.2,0.3-0.5,0.5-1h0.4l-0.9,2.8h-6.7v-0.3
		l7.1-7.4h-3c-0.6,0-1,0-1.1,0.1c-0.2,0-0.4,0.1-0.6,0.3c-0.2,0.2-0.4,0.5-0.6,0.9h-0.4L395.1,523.2z"/>
	<path d="M405.7,525.2h-4V525c2.1-1.8,3.4-3.2,4.1-4.2c0.3-0.5,0.5-1,0.5-1.5c0-0.4-0.1-0.8-0.4-1c-0.3-0.3-0.6-0.4-1-0.4
		c-0.6,0-1,0.3-1.4,0.8l-0.2-0.1c0.2-0.5,0.5-0.9,0.9-1.2c0.4-0.3,0.8-0.4,1.3-0.4c0.5,0,0.9,0.2,1.3,0.5c0.4,0.4,0.5,0.8,0.5,1.3
		c0,0.4-0.1,0.7-0.2,1c-0.2,0.5-0.5,1-1.1,1.6c-0.8,0.9-1.8,1.9-3.1,3.1h2c0.3,0,0.6-0.1,0.8-0.2c0.2-0.1,0.4-0.3,0.5-0.5h0.2
		L405.7,525.2z"/>
</g>
<g>
	<path d="M291.2,513.5c1.3,0.5,2.5,0.8,3.5,1.1c1,0.2,1.9,0.4,2.7,0.5v0.2c-1,0.2-1.9,0.3-2.9,0.6s-2,0.6-3.3,1h-1.2
		c0.9-0.6,1.9-1.1,3-1.5h-23.9V515H293c-0.8-0.3-1.3-0.5-1.6-0.7c-0.3-0.2-0.7-0.4-1.3-0.8H291.2z"/>
</g>
</svg>
