<?xml version="1.0" encoding="utf-8"?>
<!-- Generator: Adobe Illustrator 26.0.0, SVG Export Plug-In . SVG Version: 6.00 Build 0)  -->
<svg version="1.1" id="图层_1" xmlns="http://www.w3.org/2000/svg" xmlns:xlink="http://www.w3.org/1999/xlink" x="0px" y="0px"
	 viewBox="0 0 595.3 841.9" style="enable-background:new 0 0 595.3 841.9;" xml:space="preserve">
<style type="text/css">
	.st0{fill:#FFFFFF;stroke:#000000;stroke-miterlimit:10;}
	.st1{fill:none;stroke:#000000;stroke-miterlimit:10;}
	.st2{fill:none;stroke:#000000;stroke-miterlimit:10;stroke-dasharray:8.3399,4.6333;}
	.st3{fill:none;stroke:#000000;stroke-miterlimit:10;stroke-dasharray:8.8444,4.9136;}
</style>
<polygon class="st0" points="429.2,420.9 75.2,420.9 180.8,238 534.8,238 "/>
<g>
	<g>
		<line class="st1" x1="305" y1="329.5" x2="371.5" y2="329.5"/>
		<g>
			<path d="M369.7,329.5l-2.2-3.6l0.1-0.1l5.9,2.3c2,0.5,4.1,0.9,6.1,1.4c-2,0.5-4.1,0.9-6.1,1.4l-5.9,2.3l-0.1-0.1L369.7,329.5z"/>
		</g>
	</g>
</g>
<g>
	<g>
		<line class="st1" x1="305" y1="164.4" x2="305" y2="329.5"/>
		<g>
			<path d="M305,166.2l3.6,2.2l0.1-0.1l-2.3-5.9c-0.5-2-0.9-4.1-1.4-6.1c-0.5,2-0.9,4.1-1.4,6.1l-2.3,5.9l0.1,0.1L305,166.2z"/>
		</g>
	</g>
</g>
<g>
	<g>
		<line class="st1" x1="305" y1="420.9" x2="305" y2="416.4"/>
		<line class="st2" x1="305" y1="411.8" x2="305" y2="336.3"/>
		<line class="st1" x1="305" y1="334" x2="305" y2="329.5"/>
	</g>
</g>
<line class="st1" x1="305" y1="510.5" x2="305" y2="420.9"/>
<g>
	<g>
		<line class="st1" x1="202" y1="420.9" x2="205.4" y2="418"/>
		<line class="st3" x1="209.1" y1="414.7" x2="299.8" y2="334.1"/>
		<line class="st1" x1="301.6" y1="332.5" x2="305" y2="329.5"/>
	</g>
</g>
<line class="st1" x1="193.7" y1="428.4" x2="202" y2="420.9"/>
<g>
	<g>
		<line class="st1" x1="151.7" y1="465.7" x2="187.6" y2="433.8"/>
		<g>
			<path d="M186.2,435l-4-1.2l0-0.1l5.9-2.2c1.8-1,3.7-2,5.5-3.1c-1.2,1.7-2.5,3.4-3.7,5.1l-2.8,5.6l-0.1,0L186.2,435z"/>
		</g>
	</g>
</g>
<g>
	<g>
		<line class="st1" x1="408" y1="420.9" x2="404.6" y2="418"/>
		<line class="st3" x1="400.9" y1="414.7" x2="310.2" y2="334.1"/>
		<line class="st1" x1="308.4" y1="332.5" x2="305" y2="329.5"/>
	</g>
</g>
<g>
	<g>
		<line class="st1" x1="441.6" y1="450.9" x2="408" y2="420.9"/>
		<g>
			<path d="M440.3,449.7l-4,1.2l0,0.1l5.9,2.2c1.8,1,3.7,2,5.5,3.1c-1.2-1.7-2.5-3.4-3.7-5.1l-2.8-5.6l-0.1,0L440.3,449.7z"/>
		</g>
	</g>
</g>
<line class="st1" x1="458.3" y1="465.7" x2="447.7" y2="456.3"/>
<g>
	<g>
		<line class="st1" x1="354.4" y1="198.7" x2="305" y2="329.5"/>
		<g>
			<path d="M353.7,200.4l2.6,3.3l0.1-0.1l-0.1-6.3c0.3-2.1,0.6-4.1,0.9-6.2c-1.1,1.8-2.3,3.5-3.4,5.3l-4.3,4.7l0,0.1L353.7,200.4z"
				/>
		</g>
	</g>
</g>
<g>
	<g>
		<path class="st1" d="M296.9,397.3c-14.2-1.7-27-7.7-37.1-16.7"/>
		<g>
			<path d="M295.1,397l-2.4,3.4l0.1,0.1l6-1.9c2.1-0.3,4.1-0.6,6.2-0.9c-2-0.6-4-1.2-6-1.8l-5.7-2.7l-0.1,0.1L295.1,397z"/>
		</g>
		<g>
			<path d="M261.1,381.8l-0.9,4.1l-0.1,0l-2.6-5.8c-1.2-1.8-2.3-3.5-3.5-5.3c1.8,1.1,3.6,2.2,5.3,3.3l5.8,2.4l0,0.1L261.1,381.8z"/>
		</g>
	</g>
</g>
<g>
	<g>
		<path class="st1" d="M350.3,380.6c-10.1,9-23,15-37.1,16.7"/>
		<g>
			<path d="M348.9,381.8l0.9,4.1l0.1,0l2.6-5.8c1.2-1.8,2.3-3.5,3.5-5.3c-1.8,1.1-3.6,2.2-5.3,3.3l-5.8,2.4l0,0.1L348.9,381.8z"/>
		</g>
		<g>
			<path d="M314.9,397l2.4,3.4l-0.1,0.1l-6-1.9c-2.1-0.3-4.1-0.6-6.2-0.9c2-0.6,4-1.2,6-1.8l5.7-2.7l0.1,0.1L314.9,397z"/>
		</g>
	</g>
</g>
<g>
	<g>
		<path class="st1" d="M308.6,261.3c6,0.3,11.7,1.4,17.2,3.1"/>
		<g>
			<path d="M309,261.4c1.1-1,1.7-3,1.8-4.5c-1.5,1.9-3.5,3.5-5.7,4.3c2.2,1,3.9,2.9,5.3,4.8C310.3,264.4,310,262.6,309,261.4z"/>
		</g>
		<g>
			<path d="M325.4,264.3c-0.7-1.3-0.5-3.4-0.1-4.8c0.8,2.3,2,4.5,3.9,6c-2.4,0.2-4.7,1.3-6.7,2.6C323,266.8,324,265.1,325.4,264.3z"
				/>
		</g>
	</g>
</g>
<path d="M185.7,441.3l-3.3,11.5l1.3-1.1c1.5-1.2,2.4-2.1,2.8-2.7c0.1-0.2,0.2-0.3,0.2-0.4c0-0.1,0-0.1-0.1-0.2s-0.1-0.1-0.3-0.2
	s-0.4-0.1-0.7-0.1h-0.4l0.1-0.4h5.1l-0.1,0.4c-0.6,0-1.1,0.1-1.5,0.3s-0.8,0.4-1.2,0.7c-0.8,0.6-1.3,1-1.6,1.2l-1,0.9
	c0.2,0.6,0.4,1.3,0.6,2.4c0.4,1.7,0.7,2.7,0.9,3s0.3,0.5,0.5,0.5c0.1,0,0.3-0.1,0.5-0.2c0.4-0.3,0.8-0.8,1.3-1.4l0.4,0.3
	c-0.9,1.1-1.5,1.8-2,2.1s-0.9,0.5-1.2,0.5c-0.3,0-0.6-0.1-0.8-0.4c-0.3-0.5-0.8-2.3-1.6-5.4l-1.6,1.4l-1.2,4.2h-1.8l3.9-13.4
	l0.3-1.1c0-0.2,0.1-0.4,0.1-0.5c0-0.2-0.1-0.3-0.2-0.5s-0.4-0.2-0.6-0.2c-0.2,0-0.5,0-0.9,0.1V442L185.7,441.3z"/>
<path d="M268.4,394c2.2,0,3.3,1.5,3.3,4.5c0,1.8-0.4,3.8-1.3,6s-1.9,3.8-3,4.9s-2.3,1.6-3.5,1.6c-1,0-1.8-0.4-2.4-1.2
	s-0.9-1.9-0.9-3.1c0-0.8,0.2-1.9,0.5-3.3s0.9-2.8,1.6-4.3s1.6-2.6,2.6-3.6S267.4,394,268.4,394z M263.3,402.7
	c-0.7,2.2-1.1,4-1.1,5.2c0,0.8,0.2,1.4,0.5,1.9s0.8,0.7,1.4,0.7c0.5,0,1-0.2,1.5-0.6s1-1.3,1.6-2.5s1.2-2.8,1.7-4.6H263.3z
	 M269.2,402c0.5-1.6,0.8-3.2,0.8-4.8c0-1.8-0.5-2.7-1.5-2.7c-0.9,0-1.8,0.7-2.6,2s-1.6,3.2-2.3,5.5H269.2z"/>
<path d="M368.8,312.5c0.4,0.4,0.7,0.8,0.9,1.2c0.1,0.3,0.4,1,0.7,2.2l1-1.5c0.3-0.4,0.6-0.7,1-1.1s0.7-0.6,1-0.7
	c0.2-0.1,0.4-0.1,0.6-0.1c0.3,0,0.6,0.1,0.8,0.3s0.3,0.4,0.3,0.7c0,0.3-0.1,0.5-0.2,0.6c-0.2,0.2-0.5,0.3-0.8,0.3
	c-0.2,0-0.3,0-0.5-0.1c-0.4-0.1-0.6-0.2-0.7-0.2c-0.2,0-0.4,0.1-0.7,0.3c-0.5,0.4-1.1,1.2-1.7,2.4l1,4c0.1,0.6,0.3,1,0.4,1.1
	s0.2,0.2,0.3,0.2c0.2,0,0.4-0.1,0.6-0.3c0.4-0.4,0.8-0.8,1.1-1.4l0.4,0.2c-0.5,0.9-1.1,1.7-1.9,2.3c-0.4,0.3-0.8,0.5-1.1,0.5
	c-0.4,0-0.8-0.2-1-0.7c-0.2-0.3-0.5-1.6-1-3.9c-1.2,2.1-2.2,3.5-2.9,4.1c-0.5,0.4-0.9,0.6-1.4,0.6c-0.3,0-0.6-0.1-0.9-0.3
	c-0.2-0.2-0.3-0.4-0.3-0.7c0-0.3,0.1-0.5,0.3-0.6s0.4-0.3,0.6-0.3s0.5,0.1,0.8,0.4c0.2,0.2,0.4,0.3,0.5,0.3c0.1,0,0.2-0.1,0.4-0.2
	c0.4-0.3,0.9-0.9,1.5-1.9s1-1.7,1.2-2.1c-0.5-1.9-0.7-2.9-0.8-3c-0.2-0.5-0.4-0.9-0.7-1.1s-0.7-0.3-1.3-0.3c-0.2,0-0.4,0-0.6,0V313
	L368.8,312.5z"/>
<path d="M292.4,164.2h7.4v0.3l-8.1,8.4h3.4c0.8,0,1.3,0,1.5-0.1s0.4-0.2,0.6-0.4s0.4-0.6,0.6-1.1h0.4l-1,3.2h-7.6v-0.3l8.1-8.4h-3.4
	c-0.7,0-1.1,0-1.3,0.1c-0.2,0-0.4,0.2-0.7,0.4s-0.4,0.5-0.7,1h-0.4L292.4,164.2z"/>
<path d="M226,446.4c0.6-0.3,1.1-0.6,1.4-1c0.3-0.3,0.4-0.6,0.4-0.9c0-0.1,0-0.3-0.1-0.4c0-0.1-0.1-0.2-0.3-0.4s-0.3-0.3-0.3-0.4
	c-0.1-0.1-0.1-0.3-0.1-0.5c0-0.3,0.1-0.6,0.3-0.9s0.5-0.4,0.8-0.4c0.3,0,0.6,0.1,0.8,0.4s0.4,0.6,0.4,1c0,0.7-0.3,1.4-0.8,2.1
	s-1.3,1.3-2.4,1.7L226,446.4z"/>
<path d="M426.8,453.8l-3.3,11.5l1.3-1.1c1.5-1.2,2.4-2.1,2.8-2.7c0.1-0.2,0.2-0.3,0.2-0.4c0-0.1,0-0.1-0.1-0.2s-0.1-0.1-0.3-0.2
	s-0.4-0.1-0.7-0.1h-0.4l0.1-0.4h5.1l-0.1,0.4c-0.6,0-1.1,0.1-1.5,0.3s-0.8,0.4-1.2,0.7c-0.8,0.6-1.3,1-1.6,1.2l-1,0.9
	c0.2,0.6,0.4,1.3,0.6,2.4c0.4,1.7,0.7,2.7,0.9,3s0.3,0.5,0.5,0.5c0.1,0,0.3-0.1,0.5-0.2c0.4-0.3,0.8-0.8,1.3-1.4l0.4,0.3
	c-0.9,1.1-1.5,1.8-2,2.1s-0.9,0.5-1.2,0.5c-0.3,0-0.6-0.1-0.8-0.4c-0.3-0.5-0.8-2.3-1.6-5.4l-1.6,1.4l-1.2,4.2h-1.8l3.9-13.4
	l0.3-1.1c0-0.2,0.1-0.4,0.1-0.5c0-0.2-0.1-0.3-0.2-0.5s-0.4-0.2-0.6-0.2c-0.2,0-0.5,0-0.9,0.1v-0.4L426.8,453.8z"/>
<path d="M433.3,459.4c0.6-0.3,1.1-0.6,1.4-1c0.3-0.3,0.4-0.6,0.4-0.9c0-0.1,0-0.3-0.1-0.4c0-0.1-0.1-0.2-0.3-0.4s-0.3-0.3-0.3-0.4
	c-0.1-0.1-0.1-0.3-0.1-0.5c0-0.3,0.1-0.6,0.3-0.9s0.5-0.4,0.8-0.4c0.3,0,0.6,0.1,0.8,0.4s0.4,0.6,0.4,1c0,0.7-0.3,1.4-0.8,2.1
	s-1.3,1.3-2.4,1.7L433.3,459.4z"/>
<path d="M337.3,394.5c2.2,0,3.3,1.5,3.3,4.5c0,1.8-0.4,3.8-1.3,6s-1.9,3.8-3,4.9s-2.3,1.6-3.5,1.6c-1,0-1.8-0.4-2.4-1.2
	s-0.9-1.9-0.9-3.1c0-0.8,0.2-1.9,0.5-3.3s0.9-2.8,1.6-4.3s1.6-2.6,2.6-3.6S336.2,394.5,337.3,394.5z M332.1,403.2
	c-0.7,2.2-1.1,4-1.1,5.2c0,0.8,0.2,1.4,0.5,1.9s0.8,0.7,1.4,0.7c0.5,0,1-0.2,1.5-0.6s1-1.3,1.6-2.5s1.2-2.8,1.7-4.6H332.1z
	 M338,402.5c0.5-1.6,0.8-3.2,0.8-4.8c0-1.8-0.5-2.7-1.5-2.7c-0.9,0-1.8,0.7-2.6,2s-1.6,3.2-2.3,5.5H338z"/>
<path d="M342.1,397.2c0.6-0.3,1.1-0.6,1.4-1c0.3-0.3,0.4-0.6,0.4-0.9c0-0.1,0-0.3-0.1-0.4c0-0.1-0.1-0.2-0.3-0.4s-0.3-0.3-0.3-0.4
	c-0.1-0.1-0.1-0.3-0.1-0.5c0-0.3,0.1-0.6,0.3-0.9s0.5-0.4,0.8-0.4c0.3,0,0.6,0.1,0.8,0.4s0.4,0.6,0.4,1c0,0.7-0.3,1.4-0.8,2.1
	s-1.3,1.3-2.4,1.7L342.1,397.2z"/>
<path d="M363.5,198.7l-3.3,11.5l1.3-1.1c1.5-1.2,2.4-2.1,2.8-2.7c0.1-0.2,0.2-0.3,0.2-0.4c0-0.1,0-0.1-0.1-0.2s-0.1-0.1-0.3-0.2
	s-0.4-0.1-0.7-0.1h-0.4l0.1-0.4h5.1l-0.1,0.4c-0.6,0-1.1,0.1-1.5,0.3s-0.8,0.4-1.2,0.7c-0.8,0.6-1.3,1-1.6,1.2l-1,0.9
	c0.2,0.6,0.4,1.3,0.6,2.4c0.4,1.7,0.7,2.7,0.9,3s0.3,0.5,0.5,0.5c0.1,0,0.3-0.1,0.5-0.2c0.4-0.3,0.8-0.8,1.3-1.4l0.4,0.3
	c-0.9,1.1-1.5,1.8-2,2.1s-0.9,0.5-1.2,0.5c-0.3,0-0.6-0.1-0.8-0.4c-0.3-0.5-0.8-2.3-1.6-5.4l-1.6,1.4l-1.2,4.2h-1.8l3.9-13.4
	l0.3-1.1c0-0.2,0.1-0.4,0.1-0.5c0-0.2-0.1-0.3-0.2-0.5s-0.4-0.2-0.6-0.2c-0.2,0-0.5,0-0.9,0.1v-0.4L363.5,198.7z"/>
<path d="M370,204.2c0.6-0.3,1.1-0.6,1.4-1c0.3-0.3,0.4-0.6,0.4-0.9c0-0.1,0-0.3-0.1-0.4c0-0.1-0.1-0.2-0.3-0.4s-0.3-0.3-0.3-0.4
	c-0.1-0.1-0.1-0.3-0.1-0.5c0-0.3,0.1-0.6,0.3-0.9s0.5-0.4,0.8-0.4c0.3,0,0.6,0.1,0.8,0.4s0.4,0.6,0.4,1c0,0.7-0.3,1.4-0.8,2.1
	s-1.3,1.3-2.4,1.7L370,204.2z"/>
<path d="M373.4,204.2c0.6-0.3,1.1-0.6,1.4-1c0.3-0.3,0.4-0.6,0.4-0.9c0-0.1,0-0.3-0.1-0.4c0-0.1-0.1-0.2-0.3-0.4s-0.3-0.3-0.3-0.4
	c-0.1-0.1-0.1-0.3-0.1-0.5c0-0.3,0.1-0.6,0.3-0.9s0.5-0.4,0.8-0.4c0.3,0,0.6,0.1,0.8,0.4s0.4,0.6,0.4,1c0,0.7-0.3,1.4-0.8,2.1
	s-1.3,1.3-2.4,1.7L373.4,204.2z"/>
<circle class="st1" cx="498.1" cy="218" r="10.9"/>
<g>
	<path d="M498.1,223.2v-9.1c-0.2,0.2-0.6,0.4-1.1,0.7c-0.5,0.3-1,0.4-1.4,0.5v-1.3c0.6-0.2,1.2-0.4,1.8-0.7s1.1-0.7,1.5-1h0.5v10.8
		H498.1z"/>
</g>
<circle class="st1" cx="511.4" cy="322.3" r="10.9"/>
<g>
	<path d="M513.1,319.9c0-0.6-0.2-1-0.5-1.3s-0.8-0.5-1.5-0.5c-0.4,0-0.9,0.1-1.3,0.3s-0.9,0.5-1.3,1v-1.3c0.3-0.4,0.7-0.6,1.2-0.8
		c0.4-0.2,1-0.3,1.5-0.3c1,0,1.7,0.3,2.3,0.8s0.9,1.2,0.9,2.1c0,0.8-0.2,1.5-0.5,2c-0.4,0.6-1,1.2-1.8,1.8c-0.9,0.6-1.5,1-1.8,1.3
		c-0.3,0.3-0.5,0.5-0.6,0.8s-0.2,0.5-0.2,0.9h5.3v1.2h-6.7v-0.5c0-0.6,0.1-1.1,0.2-1.6c0.2-0.4,0.4-0.8,0.8-1.2s1-0.9,1.8-1.5
		c0.8-0.6,1.4-1.1,1.7-1.5C513,321,513.1,320.5,513.1,319.9z"/>
</g>
</svg>
